<?xml version="1.0" encoding="UTF-8" standalone="no"?>
<svg
   xmlns:dc="http://purl.org/dc/elements/1.1/"
   xmlns:cc="http://creativecommons.org/ns#"
   xmlns:rdf="http://www.w3.org/1999/02/22-rdf-syntax-ns#"
   xmlns:svg="http://www.w3.org/2000/svg"
   xmlns="http://www.w3.org/2000/svg"
   xmlns:sodipodi="http://sodipodi.sourceforge.net/DTD/sodipodi-0.dtd"
   xmlns:inkscape="http://www.inkscape.org/namespaces/inkscape"
   version="1.1"
   x="0"
   y="0"
   width="1315.6259"
   height="972.25708"
   viewBox="0 0 1315.6258 972.25708"
   id="svg43179"
   inkscape:version="0.91 r13725"
   sodipodi:docname="Simargl-creature.svg">
  <metadata
     id="metadata43450">
    <rdf:RDF>
      <cc:Work
         rdf:about="">
        <dc:format>image/svg+xml</dc:format>
        <dc:type
           rdf:resource="http://purl.org/dc/dcmitype/StillImage" />
        <dc:title></dc:title>
        <dc:creator>
          <cc:Agent>
            <dc:title>j4p4n</dc:title>
          </cc:Agent>
        </dc:creator>
        <cc:license
           rdf:resource="http://creativecommons.org/publicdomain/zero/1.0/" />
      </cc:Work>
      <cc:License
         rdf:about="http://creativecommons.org/publicdomain/zero/1.0/">
        <cc:permits
           rdf:resource="http://creativecommons.org/ns#Reproduction" />
        <cc:permits
           rdf:resource="http://creativecommons.org/ns#Distribution" />
        <cc:permits
           rdf:resource="http://creativecommons.org/ns#DerivativeWorks" />
      </cc:License>
    </rdf:RDF>
  </metadata>
  <defs
     id="defs43448" />
  <sodipodi:namedview
     pagecolor="#ffffff"
     bordercolor="#666666"
     borderopacity="1"
     objecttolerance="10"
     gridtolerance="10"
     guidetolerance="10"
     inkscape:pageopacity="0"
     inkscape:pageshadow="2"
     inkscape:window-width="1916"
     inkscape:window-height="1035"
     id="namedview43446"
     showgrid="false"
     showguides="true"
     inkscape:guide-bbox="true"
     fit-margin-top="0"
     fit-margin-left="0"
     fit-margin-right="0"
     fit-margin-bottom="0"
     inkscape:zoom="0.34933163"
     inkscape:cx="129.89644"
     inkscape:cy="231.60463"
     inkscape:window-x="4"
     inkscape:window-y="1"
     inkscape:window-maximized="1"
     inkscape:current-layer="g45502" />
  <g
     id="Layer_1"
     transform="translate(-2859.0859,-2043.5957)">
    <g
       transform="scale(1.0566235,0.94641091)"
       style="font-style:normal;font-weight:normal;font-size:12.32652187px;line-height:125%;font-family:sans-serif;letter-spacing:0px;word-spacing:0px;fill:#000000;fill-opacity:1;stroke:none;stroke-width:1px;stroke-linecap:butt;stroke-linejoin:miter;stroke-opacity:1"
       id="text43996" />
    <g
       id="g45502">
      <path
         style="fill:#000000"
         d="m 3206.9681,3012.1846 c -5.547,-5.547 -4.3356,-15.3087 4.3998,-35.4504 6.7098,-15.4719 10.6806,-20.22 24.6255,-29.448 26.1219,-17.286 31.1127,-40.2714 13.8771,-63.9162 -4.0431,-5.547 -13.6584,-19.1979 -21.3669,-30.3354 -7.7088,-11.1375 -14.8302,-20.1591 -15.8256,-20.0481 -4.2588,0.4746 -41.202,46.0866 -64.227,79.2981 -27.8682,40.1967 -41.8311,52.0326 -71.061,60.234 -9.6858,2.7177 -20.6382,8.1642 -24.339,12.1035 -7.8027,8.3055 -13.2819,9.1404 -15.8619,2.4171 -4.3185,-11.2542 -1.7733,-19.3719 7.929,-25.2876 l 9.75,-5.9445 -11.8188,0 c -10.3887,0 -13.5492,1.8612 -26.1201,15.4638 -12.1632,13.1613 -14.9937,14.9004 -18.9312,11.6325 -5.2353,-4.3449 -5.9625,-14.2116 -1.8456,-25.0401 3.3387,-8.7819 23.0811,-18.7062 42.5733,-21.4014 20.4609,-2.829 54.3642,-15.7932 60.4674,-23.1219 7.5393,-9.0531 10.1613,-4.3791 4.3638,7.7784 -3.0189,6.3303 -10.3914,13.4832 -19.2876,18.7125 -11.9748,7.0386 -13.299,8.6217 -7.8606,9.396 12.3816,1.7631 32.4423,-17.154 56.6613,-53.4312 22.5243,-33.7383 50.3619,-69.507 55.6464,-71.4999 4.0845,-1.5402 3.1404,-8.9184 -1.4847,-11.601 -12.6042,-7.3101 -23.6988,-58.1892 -18.84,-86.3991 4.1739,-24.2334 19.392,-71.8011 30.9693,-96.8019 18.3741,-39.6789 36.7782,-89.2179 41.5209,-111.7629 2.499,-11.8806 5.1852,-22.6392 5.9694,-23.9076 1.7874,-2.8917 10.5168,-64.5378 10.5168,-74.2689 0,-5.2356 -1.431,-6.9255 -5.25,-6.1986 -4.3215,0.8223 -5.5872,5.5038 -7.1559,26.4699 -2.451,32.754 -5.5659,47.1594 -19.9407,92.2209 -7.6038,23.8359 -12.6534,31.3182 -12.6534,18.75 0,-3.3 1.35,-6 3,-6 1.65,0 3,-3.375 3,-7.5 0,-4.125 1.1724,-7.5 2.6049,-7.5 2.2434,0 4.2906,-8.352 7.5222,-30.6888 0.4128,-2.8539 1.6782,-6.1164 2.8119,-7.2501 1.1334,-1.1337 2.061,-7.1565 2.061,-13.3839 0,-6.2277 1.35,-12.1575 3,-13.1772 1.65,-1.0197 2.8197,-9.537 2.5992,-18.927 l -0.4008,-17.073 -2.2803,13.5 c -5.4525,32.2815 -12.1902,60.6342 -21.744,91.5 -4.0857,13.2 -6.2463,24.45 -4.8012,24.9999 1.4448,0.5502 2.5416,4.6002 2.4369,9 l -0.189,8.0001 -3.2667,-7.5 c -3.0096,-6.909 -3.372,-7.0272 -4.6011,-1.5 -0.7338,3.3 -2.5533,7.2825 -4.0431,8.85 -1.4898,1.5675 -2.6658,4.9425 -2.6133,7.5 0.075,3.7068 0.9825,3.4773 4.4688,-1.131 12.0624,-15.9438 5.1402,4.7952 -17.9508,53.781 -25.4286,53.9448 -28.1712,60.2124 -31.8363,72.75 -2.0499,7.0125 -4.8633,12.75 -6.252,12.75 -3.5532,0 -3.1572,-11.2551 0.4749,-13.5 1.65,-1.0197 3,-5.1495 3,-9.177 0,-4.0278 1.35,-7.323 3,-7.323 1.65,0 3,-2.442 3,-5.4267 0,-2.9844 1.9821,-8.0469 4.4046,-11.25 2.4225,-3.2028 4.4475,-8.1858 4.5,-11.0733 0.054,-2.8875 1.1934,-5.25 2.5353,-5.25 1.3422,0 4.2942,-4.725 6.5601,-10.5 2.2659,-5.775 5.202,-10.5 6.5244,-10.5 1.3224,0 3.2682,-5.4 4.3236,-12 1.0554,-6.6 2.7666,-12 3.8031,-12 3.0228,0 9.9738,-17.6331 8.5731,-21.7482 -1.3536,-3.9765 -14.1774,18.7971 -14.2911,25.3788 -0.036,2.1282 -2.7066,7.2444 -5.9331,11.3694 -3.2268,4.125 -5.8968,9.8625 -5.9334,12.75 -0.036,2.8875 -1.4166,5.25 -3.0666,5.25 -1.65,0 -3,2.0349 -3,4.5219 0,2.4873 -3.2541,10.9248 -7.2318,18.75 -16.149,31.773 -24.0855,55.5717 -30.2907,90.8325 -5.0997,28.9776 -6.1008,89.8956 -1.4775,89.8956 1.8357,0 3,-14.1666 3,-36.5001 0,-43.272 3.0813,-45.8529 4.2231,-3.537 1.1829,43.8492 -8.3112,69.765 -34.1208,93.1389 -5.8314,5.2809 -16.0023,11.832 -22.6023,14.5578 -6.6,2.7261 -14.3442,6.1677 -17.2092,7.6485 -2.8653,1.4805 -8.523,2.6919 -12.573,2.6919 -4.05,0 -8.0748,1.1508 -8.9442,2.5572 -0.8691,1.4064 -10.5543,3.3951 -21.5223,4.4193 -21.8751,2.0427 -27.2136,5.0307 -33.0936,18.5223 l -3.9228,9.0012 -0.117,-9.285 c -0.072,-5.6013 2.2704,-11.4459 5.901,-14.7315 7.2108,-6.5256 5.8344,-9.2214 -2.4459,-4.7898 -10.0044,5.3541 -17.6445,35.0643 -8.0724,31.3911 6.1002,-2.3409 5.8566,6.0546 -0.3246,11.1846 -12.6006,10.4574 -18.7749,-28.3416 -6.9105,-43.4247 9.5148,-12.096 21.6927,-16.9899 53.3547,-21.441 15.8841,-2.2332 35.0787,-6.8061 42.654,-10.1616 16.1205,-7.1409 40.5954,-32.0181 43.518,-44.2329 1.1196,-4.68 3.0459,-9.8592 4.2807,-11.5092 1.2348,-1.65 2.9064,-23.25 3.7152,-48 1.2921,-39.5523 2.6316,-48.8133 11.064,-76.5 5.2767,-17.325 17.4639,-47.7 27.0831,-67.5 25.3065,-52.0917 41.2353,-88.8102 49.8915,-115.0092 10.6674,-32.2863 22.122,-88.7775 22.1502,-109.2408 l 0.03,-17.25 -18.75,-0.144 c -22.1088,-0.168 -49.08,-2.1768 -58.3161,-4.3404 -7.9983,-1.8735 -11.1672,2.3682 -7.1811,9.612 20.9712,38.1132 36.2472,86.8944 36.2472,115.7502 0,39.795 -31.3197,87.6981 -67.1172,102.6552 -8.6586,3.618 -11.2857,6.822 -14.0688,17.1573 -9.4794,35.2038 -32.4975,67.5468 -81.1389,114.0093 -43.0038,41.0772 -64.4058,67.2792 -76.6854,93.8841 -11.3466,24.5835 -11.0997,56.3946 0.6954,89.6196 9.7377,27.4293 7.86,36.2967 -8.3283,39.3336 -19.7886,3.7125 -31.6518,-6.8967 -48.2244,-43.1277 -8.2713,-18.0825 -8.6274,-67.5429 -0.6834,-94.9095 8.607,-29.6508 8.8488,-33.5943 2.2734,-37.1133 -3.2343,-1.731 -8.9256,-10.2255 -12.6471,-18.8766 -11.067,-25.7259 -5.1852,-51.7143 16.9329,-74.8188 l 10.3473,-10.8084 -7.7742,-9.2391 c -29.6364,-35.2209 -40.3158,-115.884 -21.48,-162.2394 11.9889,-29.5047 39.3624,-66.0993 57.8151,-77.2908 5.1315,-3.1119 4.4712,-4.3713 -8.1573,-15.5568 -37.5303,-33.2412 -51.6438,-104.7354 -30.9066,-156.5625 2.7312,-6.8262 3.8361,-14.244 2.568,-17.2383 -13.3917,-31.6185 0.54,-74.7561 28.8759,-89.4093 10.9743,-5.6751 38.1735,-5.5404 58.2222,0.288 43.2927,12.5856 77.5551,68.9667 77.8503,128.1078 0.087,17.6025 1.26,26.2449 3.5601,26.25 4.1094,0 7.071,-6.8895 7.071,-16.4706 0,-13.6707 12.8583,-40.2867 27.2787,-56.4663 l 14.6226,-16.4061 -10.842,-2.034 c -5.9628,-1.1187 -16.0005,-5.2905 -22.3059,-9.2709 -11.0988,-7.0065 -26.7534,-26.3265 -26.7534,-33.0177 0,-1.8045 -3.4008,-6.4758 -7.5576,-10.3806 -8.8785,-8.3412 -23.9091,-31.4781 -26.8821,-41.3808 -1.9875,-6.6207 -1.5603,-6.8415 9.429,-4.8705 6.3309,1.1358 21.6357,4.5732 34.0107,7.6389 25.9461,6.4281 54.8526,7.1742 87.2004,2.2512 l 22.7001,-3.4545 5.0907,-14.3328 c 2.8749,-8.0949 9.2748,-17.8536 14.7045,-22.4226 8.661,-7.2876 11.3202,-7.9347 26.8299,-6.5283 21.3876,1.9392 29.8662,7.7616 53.6019,36.8094 10.038,12.2844 20.7771,23.6874 23.8644,25.3398 7.5123,4.0203 37.9557,3.81 57.5769,-0.3981 17.7714,-3.8112 51.2118,-18.3318 71.0259,-30.8412 15.5991,-9.8481 22.1232,-7.1028 15.2865,6.4329 -16.4325,32.5329 -46.4277,62.8398 -76.6959,77.4924 -11.7231,5.6751 -22.8606,10.3182 -24.75,10.3182 -4.9614,0 -4.2579,4.353 2.7081,16.7553 10.1325,18.0402 20.8566,54.9618 20.8566,71.8068 0,11.4561 1.2693,16.2831 4.6203,17.5689 5.0298,1.9302 33.0318,-5.742 91.3797,-25.0368 39.4029,-13.0299 48.0945,-18.0192 43.0176,-24.6936 -6.8529,-9.009 -10.7298,-32.5509 -10.4184,-63.2634 0.3567,-35.1648 6.681,-59.9028 24.6903,-96.5742 l 8.8707,-18.063 -8.5344,-7.5 c -4.6941,-4.125 -17.8926,-15.735 -29.3301,-25.7997 -11.4378,-10.065 -24.8457,-21.7626 -29.7957,-25.995 -4.95,-4.2321 -8.0571,-8.6403 -6.9045,-9.7956 3.2196,-3.2277 89.6556,72.3726 156.7269,137.079 24.6327,23.7642 31.0062,28.4763 35.3631,26.1444 2.9229,-1.5642 5.3145,-4.1892 5.3145,-5.8329 0,-5.0514 -66.9282,-67.5348 -137.067,-127.9647 -16.8117,-14.4846 -30.6492,-27.348 -30.75,-28.5855 -0.54,-6.6363 10.2591,1.1286 45.8931,33 59.5953,53.3019 63.69,57.0558 95.7204,87.75 16.3572,15.675 31.4313,28.8954 33.498,29.3787 2.0664,0.4833 5.3172,-1.0008 7.2234,-3.2979 2.7915,-3.3636 -3.3975,-10.8339 -31.7958,-38.3787 -19.3941,-18.8112 -39.978,-38.103 -45.7422,-42.8709 -5.7639,-4.7676 -19.9299,-17.2359 -31.4799,-27.7071 -11.55,-10.4712 -26.4,-23.7513 -33,-29.5116 l -12,-10.4733 9.5001,-0.069 c 5.2248,-0.039 9.9498,0.9429 10.5,2.1804 0.5499,1.2375 9.9246,10.0125 20.8326,19.5 19.2084,16.707 27.3402,20.4423 31.1355,14.3016 1.002,-1.6215 13.2723,-6.5181 27.267,-10.8816 22.9185,-7.1457 28.638,-7.7754 57.6048,-6.342 22.4964,1.1133 38.9208,3.8013 54.66,8.9457 25.9269,8.4744 55.8108,21.8754 58.506,26.2359 2.4864,4.023 6.2397,3.7653 11.061,-0.7596 2.1972,-2.0625 13.4313,-11.7681 24.9642,-21.5682 11.5329,-9.8001 23.826,-20.9376 27.318,-24.75 5.745,-6.2724 13.1508,-9.3015 13.1508,-5.3787 0,7.353 -117.7125,105.1356 -168.3252,139.8261 -24.5391,16.8195 -40.1445,28.3932 -55.1748,40.9203 -16.8384,14.0343 -16.542,13.8147 -41.7744,30.9348 -12.4992,8.4804 -22.719,16.9596 -22.7112,18.8424 0,1.8828 4.6992,8.5242 10.425,14.7582 l 10.4106,11.3352 12.1212,-7.6518 c 21.8028,-13.7637 61.4949,-41.0496 63.0288,-43.3287 0.825,-1.2258 7.575,-6.573 15,-11.8827 7.425,-5.3097 18.9,-14.7003 25.5,-20.868 18.3789,-17.1753 43.2366,-35.3913 99,-72.5481 58.7022,-39.1149 87.4794,-59.9268 116.8068,-84.4749 19.7817,-16.5579 30.6525,-21.8706 27.9645,-13.6659 -2.649,8.0862 -67.3389,60.6219 -103.5213,84.072 -14.4138,9.3414 -15.141,11.6919 -6.8718,22.2048 3.2331,4.11 10.2771,18.498 15.6534,31.9731 9.4047,23.5728 9.7743,26.0898 9.7599,66.5001 0,25.4688 -1.5483,47.3136 -3.9114,55.5 -5.0829,17.61 -20.841,48.84 -26.1873,51.8991 -6.1521,3.5202 -5.436,5.9703 8.2713,28.2981 16.9668,27.6369 26.3304,48.8685 34.0482,77.2017 l 6.5097,23.8989 16.239,4.9197 c 26.3796,7.992 60.6546,25.512 83.4321,42.6474 23.7753,17.8857 60.675,61.6281 69.9672,82.9413 16.9095,38.7867 18.4044,46.998 18.33,100.6938 -0.072,52.9818 -2.1663,66.3669 -15.6138,99.8463 -5.6232,14.0001 -5.8176,16.0563 -1.6689,17.6484 9.7839,3.7545 39.2796,-1.6092 58.7775,-10.6887 22.8126,-10.6224 42.2214,-12.0996 58.3599,-4.4412 5.6385,2.6757 10.9095,5.9289 11.7132,7.2294 2.6802,4.3368 -1.9137,11.3445 -8.5254,13.005 -9.1785,2.3052 -43.1619,25.7721 -57.846,39.9447 -12.1452,11.7228 -35.8242,24.9561 -44.6541,24.9561 -5.6298,0 -5.6451,2.0928 -0.129,17.7279 7.4535,21.1254 -1.2933,50.0364 -17.8326,58.9434 -12.2751,6.6108 -17.7573,4.5582 -24.2244,-9.0696 -12.5481,-26.4435 -71.331,-66.0798 -120.7125,-81.3942 -12.3099,-3.8178 -12.9753,-3.7014 -15.4077,2.6958 -4.5135,11.8713 -29.0937,36.4626 -44.1135,44.1336 -11.9949,6.126 -18.9483,7.4631 -38.8068,7.4631 -21.6369,0 -26.2236,-1.0641 -43.4013,-10.0683 -10.5642,-5.5377 -23.8977,-13.9344 -29.6301,-18.6594 l -10.4226,-8.5911 -16.9482,16.1658 c -30.9543,29.5257 -69.7599,50.2965 -93.8316,50.2242 -14.5773,-0.045 -40.8648,-11.2065 -57.4743,-24.4062 -13.0944,-10.4064 -15.459,-11.3181 -19.5,-7.5195 -19.0146,17.8752 -38.8677,29.0016 -63.78,35.745 -23.6988,6.4152 -43.4157,4.797 -56.685,-4.6515 -11.2689,-8.0241 -29.6334,-35.1255 -29.6334,-43.7313 0,-10.2897 14.3172,-19.8147 26.9682,-17.9412 47.0604,6.969 55.8681,5.4774 73.9128,-12.516 12.8529,-12.816 21.39,-30.3954 23.9967,-49.4115 l 1.8372,-13.4049 -29.3526,-0.4959 c -16.1439,-0.273 -30.4383,-1.167 -31.7649,-1.9872 -1.3269,-0.8199 -27.7665,-0.06 -58.755,1.6908 -70.758,3.9957 -66.6822,0.5643 -66.7758,56.217 -0.075,44.0517 -2.5101,51.8499 -22.7748,72.9036 -5.886,6.1149 -10.9152,14.9574 -11.9445,21 l -1.7775,10.4376 5.3577,-10.5 c 2.9466,-5.775 10.437,-15.0222 16.6449,-20.5497 18.7446,-16.6893 20.433,-22.7187 18.8964,-67.4841 -0.7824,-22.7937 -0.132,-41.3673 1.5423,-43.9662 1.9995,-3.1059 3.1371,4.3302 3.6714,24 1.7325,63.759 0.162,70.5807 -21.2094,92.1675 -6.4455,6.5103 -14.0676,16.7859 -16.938,22.8345 -6.4617,13.6173 -12.678,14.1183 -15.0981,1.2168 -2.4762,-13.1988 1.4691,-21.9471 17.913,-39.7188 l 13.8789,-15 -0.5724,-59.3922 c -0.3147,-32.6655 0.6462,-60.5739 2.1357,-62.0181 5.7042,-5.5323 74.9013,-9.6213 130.1805,-7.6929 30.54,1.0656 58.5552,2.6811 62.2557,3.5901 5.1306,1.2603 7.3716,-0.03 9.4365,-5.4171 3.297,-8.6067 2.6592,-9.2322 -16.1649,-15.8571 -43.3761,-15.2649 -97.3401,-43.911 -116.6688,-61.9317 -4.7679,-4.4454 -13.7427,-9.6024 -19.9437,-11.4603 -12.4815,-3.7395 -38.8875,-27.8277 -38.8875,-35.4741 0,-2.6808 -2.0625,-7.1532 -4.5834,-9.9387 -5.8767,-6.4938 -10.4382,-47.3877 -7.6131,-68.2536 l 2.1453,-15.8457 -10.7244,10.116 c -5.8983,5.5638 -16.7994,13.6293 -24.2244,17.9235 -14.13,8.172 -30,21.0006 -30,24.2511 0,1.0455 3.792,1.9008 8.4267,1.9008 9.594,0 15.306,3.966 22.5333,15.6444 8.7798,14.1879 6.2127,36.2862 -7.3263,63.0648 -1.4484,2.8653 -2.6337,8.6028 -2.6337,12.75 0,10.2969 -5.9466,9.618 -6.2118,-0.7092 -0.192,-7.4274 -0.7992,-6.9261 -6.1014,5.028 -3.2391,7.3026 -6.711,21.1401 -7.7154,30.75 -1.5213,14.5566 -1.0515,17.472 2.817,17.472 3.4986,0 5.3532,-5.3604 7.5252,-21.75 l 2.8821,-21.75 0.402,29.2908 c 0.222,16.1097 1.9632,32.3097 3.8706,36 1.9077,3.69 4.8636,9.4092 6.5685,12.7092 16.0281,31.0221 20.4483,43.8612 17.013,49.4193 -1.5231,2.4645 -8.5524,-5.2377 -20.7987,-22.7895 -31.6494,-45.3609 -37.8171,-82.7697 -20.2629,-122.8989 11.2608,-25.7421 11.256,-28.7622 -0.051,-31.7655 -14.3298,-3.8058 -27.9378,-21.9195 -27.9378,-37.188 0,-22.7013 11.3376,-37.2522 44.826,-57.5307 21.8565,-13.2348 24.9216,-17.6919 14.0451,-20.4216 -7.4958,-1.8813 -18.8802,-15.3159 -15.6858,-18.5103 0.9156,-0.9156 4.3656,1.5639 7.6668,5.5101 l 6.0021,7.1751 -1.827,-14.1936 -1.8273,-14.1939 23.6574,-23.3061 c 13.0116,-12.8187 25.3416,-26.3256 27.4002,-30.0156 7.566,-13.5636 2.8578,-39.7908 -7.1433,-39.7908 -1.2729,0 -0.6942,1.62 1.2858,3.6 5.1156,5.1156 4.4562,24.987 -1.2048,36.2991 -4.5081,9.0081 -30.1803,34.8417 -34.8012,35.0196 -1.158,0.045 -6.3507,6.2508 -11.5386,13.7916 -5.9238,8.6097 -10.9995,13.1088 -13.644,12.0939 -2.8524,-1.0944 -4.2114,0.5802 -4.2114,5.19 0,3.7431 -1.1118,8.0883 -2.4702,9.6558 -1.359,1.5675 -5.7231,11.2875 -9.6981,21.6 -3.9753,10.3125 -8.2026,18.75 -9.3939,18.75 -1.1913,0 -3.0525,4.725 -4.1358,10.5 -2.1096,11.2455 -7.302,14.4453 -7.302,4.5 0,-3.3 1.0206,-6 2.2677,-6 1.2471,0 4.0362,-4.3875 6.1977,-9.75 2.1615,-5.3625 5.8662,-14.1834 8.2323,-19.6017 2.3664,-5.4186 4.3023,-12.5061 4.3023,-15.75 0,-3.2442 1.35,-5.8983 3,-5.8983 1.65,0 3,-3.105 3,-6.9 0,-3.795 1.4898,-8.3898 3.3108,-10.2108 2.373,-2.373 2.3988,-4.8804 0.09,-8.85 -2.8725,-4.9419 -3.2295,-4.6689 -3.3108,2.5338 -0.051,4.44 -1.4412,8.9073 -3.0912,9.927 -1.65,1.0197 -3,4.002 -3,6.6273 0,2.6253 -3.5808,12.333 -7.9572,21.573 -4.3761,9.2397 -9.4386,20.0469 -11.25,24.0159 -1.8111,3.9687 -3.0888,13.7562 -2.8398,21.75 0.4194,13.4472 -2.8383,19.5378 -5.7681,10.7838 -0.6903,-2.0625 -0.6426,0.141 0.105,4.899 0.7614,4.8381 -1.2381,14.7516 -4.5381,22.5 -18.3144,43.0035 -23.0403,78.4956 -14.1957,106.6146 2.9187,9.2796 5.9874,16.1916 6.8193,15.36 0.8319,-0.8319 2.0127,-8.625 2.6241,-17.3181 1.347,-19.155 9.3165,-42.0576 14.0544,-40.3887 2.1258,0.7488 3.0891,6.6579 2.5152,15.4299 -1.7154,26.2293 14.3565,73.0224 34.0563,99.1533 11.046,14.652 23.0985,37.9833 23.9058,46.2762 0.4134,4.248 1.6947,9.9882 2.847,12.7557 1.1523,2.7675 1.4973,8.1675 0.7665,12 -1.0302,5.4036 -1.4205,4.8186 -1.7373,-2.6049 -0.225,-5.265 -1.7583,-10.4073 -3.4083,-11.427 -1.65,-1.0197 -3,-5.1084 -3,-9.0858 0,-8.3898 -9.5016,-26.6055 -19.5156,-37.4142 -9.2187,-9.9504 -28.4844,-43.2639 -28.4844,-49.2549 0,-2.6097 -1.35,-4.7451 -3,-4.7451 -1.65,0 -3,1.7856 -3,3.9684 0,6.9816 17.3667,40.101 26.475,50.49 16.8696,19.2411 21.9618,31.8324 22.5135,55.6668 0.5034,21.7458 0.3465,22.2378 -9.9885,31.3197 -5.775,5.0748 -13.4049,10.3419 -16.9551,11.7048 -10.5396,4.0452 -21.8538,21.6189 -24,37.2774 -1.5897,11.5968 -1.1565,14.1102 2.2362,12.9792 2.4921,-0.8307 5.1402,-8.0292 6.495,-17.6544 1.8531,-13.1667 4.1322,-17.8026 12.0057,-24.4212 5.3451,-4.4931 11.4174,-8.2056 13.4943,-8.25 6.1386,-0.132 21.7239,-15.6108 21.7239,-21.5766 0,-3.0273 1.5075,-5.5041 3.3498,-5.5041 3.2382,0 2.6817,4.7901 -1.8303,15.75 -2.9895,7.2618 4.6212,6.8625 14.2992,-0.75 16.1187,-12.6789 15.4014,-3.3495 -0.8655,11.2536 -14.6688,13.1685 -20.9532,25.0881 -20.9532,39.7425 0,13.8282 -9.27,24.0042 -16.4436,18.0507 -7.0038,-5.8128 -6.0003,-31.5927 1.6479,-42.3336 8.4477,-11.8638 0.8094,-11.8698 -11.8869,0 -7.3239,6.8412 -9.3174,11.1918 -9.3174,20.3325 0,19.3377 -13.2915,31.4724 -23.4,21.3639 z m 53.4,-12.9471 c 0,-9.6345 6.75,-31.4529 9.7305,-31.4529 1.2483,0 2.2695,-1.35 2.2695,-3 0,-6.7596 -5.3982,-2.2839 -9.9501,8.25 -6.7017,15.5094 -9.6114,33.75 -5.3838,33.75 1.8336,0 3.3339,-3.3963 3.3339,-7.5471 z m -185.3409,-31.9428 c 25.1043,-8.8206 33.4788,-13.515 43.0017,-24.1053 12.7473,-14.1759 31.3392,-40.1643 31.3392,-43.8066 0,-1.704 1.0125,-3.5481 2.25,-4.0983 1.2375,-0.5499 7.9095,-8.6013 14.8269,-17.892 6.9174,-9.2907 20.1114,-25.0302 29.3202,-34.9767 9.8034,-10.5888 15.2259,-18.5901 13.083,-19.3047 -2.0133,-0.6708 -10.4424,6.9687 -18.7317,16.9767 -8.2893,10.0083 -17.5776,20.8968 -20.6406,24.1968 -3.063,3.3 -7.7817,9.7125 -10.4853,14.25 -2.7039,4.5375 -5.9751,8.25 -7.2693,8.25 -1.2942,0 -2.3532,2.025 -2.3532,4.5 0,2.475 -1.1373,4.5 -2.5275,4.5 -1.3902,0 -5.0721,4.725 -8.1822,10.5 -3.1101,5.775 -6.6978,10.5 -7.9725,10.5 -1.2747,0 -2.3178,1.3398 -2.3178,2.9772 0,3.0375 -9.1995,14.754 -18.8826,24.0489 -7.7403,7.4301 -27.9693,16.9863 -47.598,22.4856 -15.8508,4.4409 -22.7268,10.4898 -18.9219,16.6461 0.8892,1.4388 4.9029,-0.24 8.9187,-3.7329 4.0161,-3.492 14.4306,-8.8536 23.1429,-11.9148 z m -143.6418,11.0442 c 3.9276,-3.9279 3.4629,-6.8121 -3.9888,-24.75 -15.6876,-37.7646 -14.2989,-76.9776 3.8478,-108.6507 3.357,-5.8596 8.1549,-14.7036 10.6617,-19.6536 2.5065,-4.95 31.1019,-35.325 63.5448,-67.5 49.2042,-48.798 60.3639,-61.4853 67.2888,-76.5 4.5663,-9.9 9.4935,-20.3328 10.9494,-23.184 5.2584,-10.2966 11.9907,-63.2796 10.1703,-80.0382 -5.394,-49.6551 -17.1963,-75.495 -49.2708,-107.8725 -24.0525,-24.2799 -37.5351,-31.9866 -42.3447,-24.2046 -3.3234,5.3775 -1.4673,7.7625 10.4361,13.4112 52.6548,24.9864 84.4197,105.1341 70.0338,176.7075 -4.791,23.8371 -20.6553,53.6586 -36.6732,68.9373 -23.3241,22.2474 -45.1974,42.0402 -63.2607,57.2433 -39.663,33.3822 -63.9063,67.5309 -76.6731,108 -5.1807,16.422 -4.5087,45.6798 1.3569,59.0895 6.2595,14.3097 0.9477,18.1233 -5.7078,4.098 -4.9035,-10.3335 -6.6597,-42.7875 -3.162,-58.4307 4.3698,-19.5435 12.5244,-39.1203 21.666,-52.0137 5.5596,-7.8414 10.1082,-14.9289 10.1082,-15.75 0,-0.8211 -3.5085,-1.4931 -7.7967,-1.4931 -19.8612,0 -40.1679,-18.6735 -40.1922,-36.9594 0,-8.2575 12.7386,-29.9487 22.2357,-37.8306 6.3714,-5.2875 6.0027,-9.21 -0.8649,-9.21 -6.6936,0 -23.1891,18.4437 -29.106,32.5431 -6.1674,14.6964 -0.5229,34.1532 14.6985,50.6664 10.2957,11.1696 11.5116,13.8834 8.7927,19.6263 -13.8903,29.3382 -16.1925,40.3806 -16.7574,80.3763 -0.33,23.3646 0.5325,27.531 9.4455,45.636 13.956,28.3485 29.3823,38.8857 40.5621,27.7062 z m 93.4839,-28.053 c -3.0234,-3.0234 -16.6977,6.7737 -20.7267,14.8497 -6.4149,12.8589 -2.2986,12.4527 10.5366,-1.0401 6.435,-6.7647 11.0208,-12.9792 10.1901,-13.8096 z m 433.3557,23.274 c 14.4318,-3.3261 41.181,-18.5298 55.6431,-31.6272 4.95,-4.4826 12.0378,-10.8606 15.7509,-14.1729 l 6.7506,-6.0225 16.1565,16.2858 c 39.8073,40.1259 84.3141,34.4178 136.077,-17.4522 13.6044,-13.6326 26.2116,-24.7863 28.0161,-24.7863 1.8045,0 10.2231,6.0729 18.7083,13.4955 26.0868,22.8204 52.0806,31.5792 80.8944,27.2583 31.1151,-4.6659 59.1459,-37.4055 66.9993,-78.2538 7.7085,-40.0944 -2.8542,-93.2223 -26.2158,-131.8581 -6.0009,-9.9243 -10.2987,-19.4163 -9.5505,-21.0933 0.7482,-1.6767 8.205,-6.4236 16.5708,-10.5486 29.1186,-14.3577 49.2,-48.6177 37.587,-64.125 -7.4898,-10.0011 -19.6521,-7.101 -33.3705,7.9575 -15.2733,16.7652 -31.362,25.3203 -55.6683,29.6016 -26.0709,4.5924 -28.4871,0.9297 -11.5026,-17.4363 42.1254,-45.5523 65.5635,-104.4108 61.392,-154.1697 -3.4134,-40.7157 -28.6701,-95.0877 -71.7594,-154.482 -10.3596,-14.2797 -21.0975,-29.3982 -23.8617,-33.5961 -6.4413,-9.7821 -62.5668,-75.75 -64.4481,-75.75 -3.6822,0 -13.026,6.5316 -13.026,9.1056 0,1.5918 2.3625,5.3562 5.25,8.3652 52.2015,54.3975 99.7242,120.1755 125.0085,173.0292 20.7159,43.3044 23.5482,54.1704 23.85,91.5 0.279,34.5915 -4.1412,55.0671 -17.4729,80.9265 -2.1477,4.1655 -5.7513,11.4804 -8.0085,16.2555 -2.2569,4.7754 -12.5316,17.7852 -22.8324,28.9113 -19.1376,20.6703 -31.9542,28.1022 -54.7482,31.7472 -16.8963,2.7018 -14.9856,8.112 4.4622,12.6333 9.0798,2.1111 22.1565,6.8055 29.0592,10.4322 12.9492,6.8034 53.4321,44.9454 53.4321,50.3424 0,1.6728 2.6445,8.5152 5.8767,15.2052 32.2902,66.8328 13.0761,134.7774 -38.0304,134.4804 -15.3741,-0.09 -34.7844,-9.3882 -43.1142,-20.6547 -5.2668,-7.1235 -9.1686,-9.2793 -16.7964,-9.2793 -5.4645,0 -9.9048,1.0125 -9.8667,2.25 0.039,1.2375 7.1253,9.0906 15.75,17.451 29.4336,28.5327 63.6252,36.9318 87.9174,21.5967 13.5408,-8.5479 16.1922,-11.4333 24.9528,-27.1548 19.005,-34.1058 17.3382,-84.1776 -4.4277,-133.0023 -7.3443,-16.4751 -30.732,-45.705 -43.1391,-53.9157 -14.4381,-9.5547 -13.2396,-13.4307 3.7692,-12.1908 26.1588,1.9068 57.6303,-10.0809 70.9629,-27.0306 3.2739,-4.1622 7.5777,-7.026 9.564,-6.3639 2.1744,0.7248 -1.0695,6.3981 -8.1537,14.2602 -11.847,13.1478 -37.5219,27.0594 -50.1003,27.1461 -14.1612,0.096 -14.9103,4.3218 -3.1467,17.742 15.6558,17.8605 28.6197,41.5488 34.5939,63.2121 13.1412,47.6511 11.5689,78.8607 -5.6208,111.573 -21.7815,41.4501 -58.0173,51.3651 -98.4909,26.949 -11.721,-7.0707 -40.5,-35.6529 -40.5,-40.2231 0,-1.2642 -1.9974,-2.2989 -4.4391,-2.2989 -2.4414,0 -7.3611,5.7375 -10.9329,12.75 -15.8688,31.1574 -44.6949,55.4421 -77.355,65.1687 -18.8778,5.622 -21.3687,5.7294 -35.5053,1.5315 -9.9912,-2.9673 -18.2916,-8.0325 -24.2124,-14.7762 -9.4227,-10.7319 -18.5553,-36.5151 -18.5553,-52.3857 0,-6.2562 -1.4688,-9.2883 -4.5,-9.2883 -2.475,0 -4.5,1.5741 -4.5,3.4983 0,9.5736 -27.9942,47.2257 -46.47,62.5017 -24.0387,19.8756 -28.1742,21.6477 -50.1234,21.4767 -17.8188,-0.138 -32.4066,-6.5856 -32.4066,-14.3217 0,-5.3415 2.6916,-5.2311 16.866,0.6912 36.9243,15.4281 93.3093,-32.0658 116.8728,-98.4438 8.0694,-22.731 16.2606,-55.9926 16.278,-66.0972 0,-5.3928 1.2648,-14.5302 2.79,-20.3052 2.6685,-10.1025 3.9495,-17.8005 8.1123,-48.75 l 1.9167,-14.25 -9.1455,0 c -9.0153,0 -9.1977,0.3093 -12.8163,21.75 -2.0841,12.3474 -9.2334,34.1238 -16.5381,50.3733 -12.4485,27.6921 -22.3359,67.0428 -22.3359,88.8939 0,24.7152 -28.1811,61.9569 -53.1087,70.1838 -10.5099,3.4683 -25.5279,2.6244 -46.0236,-2.5869 -15.6579,-3.9816 -23.8677,0.066 -23.8677,11.7663 0,7.581 2.9664,12.3036 14.25,22.6875 19.3947,17.8482 30.9252,21.1647 54.6069,15.7074 z m 589.0041,-3.7209 c 8.3475,-12.7404 11.3244,-29.2392 7.5489,-41.8407 -4.7937,-16.0008 -33.6588,-38.7105 -60.3318,-47.4666 -10.9662,-3.6 -19.2153,-7.716 -18.3315,-9.1464 0.8841,-1.4304 3.1428,-2.6007 5.0193,-2.6007 3.8256,0 24.0081,-12.9588 34.8078,-22.3494 13.077,-11.3706 27.1707,-50.2038 33.3069,-91.7715 8.6721,-58.746 -3.8517,-125.7036 -30.4929,-163.0293 -20.5248,-28.7565 -55.0119,-58.1823 -86.3877,-73.71 -15.8973,-7.8675 -54.516,-21.6237 -56.1417,-19.998 -0.621,0.6207 -1.4055,4.6707 -1.7436,8.9997 -0.5562,7.1229 1.6416,8.8587 23.1243,18.2646 80.1684,35.1003 123.3249,92.4084 133.9167,177.8283 5.2086,42.0081 -0.8379,77.6307 -19.3932,114.2475 -13.7031,27.0417 -30.6477,38.5779 -67.1301,45.7029 l -18.8676,3.6849 23.3676,8.0757 c 46.1904,15.9627 75.3648,34.4835 86.3457,54.8154 5.5506,10.2771 5.625,11.4219 1.038,16.0089 -6.0924,6.0921 -10.4058,3.6816 -15.6129,-8.7249 -8.3829,-19.9728 -28.9608,-35.7177 -69.4032,-53.1024 -19.0521,-8.1897 -43.6752,-15.3267 -49.86,-14.4522 -12.7125,1.7979 -9.0102,11.7954 6.0105,16.2303 7.233,2.1357 26.808,10.7292 43.5,19.0968 30.5154,15.297 55.3212,35.5956 74.7273,61.1505 9.7158,12.7938 14.6484,13.7547 20.9832,4.0866 z m -992.5611,-22.7124 c -1.5399,-1.4067 -8.1999,-1.7619 -14.7999,-0.789 l -12,1.7688 13.5,1.6539 c 14.7651,1.8087 17.5575,1.2558 13.2999,-2.6337 z m 11.4501,-5.3289 c -2.0625,-0.8322 -5.4375,-0.8322 -7.5,0 -2.0625,0.8322 -0.375,1.5132 3.75,1.5132 4.125,0 5.8125,-0.681 3.75,-1.5132 z m 575.3946,-10.5762 c 21.8352,-11.7216 47.8419,-36.7752 55.2669,-53.241 6.2235,-13.8012 6.1845,-13.9281 -5.1678,-16.7772 -6.8394,-1.7166 -8.2437,-1.0917 -8.2437,3.6687 0,8.6982 -15.4896,31.2963 -29.916,43.6449 -16.7904,14.3718 -39.4293,19.7109 -55.3581,13.0554 -16.05,-6.7062 -23.808,-26.2134 -21.5898,-54.2877 0.9123,-11.55 2.2197,-24.375 2.9049,-28.5 8.4351,-50.787 14.8461,-140.7315 10.3707,-145.5 -4.3731,-4.6596 -10.5033,5.8626 -12.7506,21.8853 -5.3682,38.2725 -11.3298,76.3194 -15.1389,96.6147 -9.6126,51.2208 -7.7055,91.4601 5.1183,108 17.7168,22.8507 45.3432,27.0915 74.5041,11.4369 z m -604.4946,-5.2059 c 1.5675,-1.5231 6.225,-3.3831 10.35,-4.1328 4.125,-0.75 -1.9353,-0.7404 -13.4673,0.03 -25.9506,1.7142 -36.7863,6.6573 -14.8827,6.789 8.3325,0.051 16.4325,-1.1547 18,-2.6778 z m 30.5376,-11.0436 c -0.9969,-0.9969 -3.5844,-1.1034 -5.7501,-0.237 -2.3931,0.9576 -1.6824,1.6686 1.8126,1.8126 3.1623,0.129 4.9344,-0.5787 3.9375,-1.5756 z m 570.1818,-3.9246 c 16.7433,-8.6301 39.6306,-35.4507 39.6306,-46.4415 0,-5.1522 -16.9275,-7.5906 -59.9304,-8.6325 l -28.4307,-0.6888 -2.7657,12.8451 c -7.6854,35.6934 20.2857,59.0049 51.4962,42.9177 z m -542.0118,-12.1533 c 13.2573,-12.6693 10.2939,-13.2861 -6.3576,-1.323 -8.25,5.9271 -15,11.4156 -15,12.1971 0,3.5007 13.5177,-3.3816 21.3576,-10.8741 z m 985.3809,-9.225 c 6.9483,-3.3636 21.6909,-14.1117 32.7615,-23.8845 11.0706,-9.7728 26.1087,-20.664 33.4179,-24.2022 11.2251,-5.4339 12.7089,-7.1325 9.5535,-10.9347 -5.7462,-6.9237 -30.7017,-3.3642 -53.7618,7.6686 -17.4096,8.3292 -22.8579,9.4683 -45.285,9.4683 -24.7788,0 -26.0319,0.3474 -44.6451,12.3777 l -19.1508,12.3777 14.6115,5.7393 c 8.0361,3.1569 17.9766,8.3868 22.0902,11.6223 10.1199,7.9605 33.7083,7.8516 50.4081,-0.231 z m -58.7385,-12.7785 c 0,-8.8794 9.3225,-12.6291 29.2749,-11.7747 22.3017,0.9552 35.235,-2.8929 55.7298,-16.5813 13.8078,-9.222 28.9953,-12.9279 28.9953,-7.0752 0,1.4712 -3.3852,3.5244 -7.5228,4.563 -4.1376,1.0383 -16.5099,7.9152 -27.4938,15.2817 -20.5542,13.785 -24.273,14.931 -58.7334,18.0975 -16.5867,1.524 -20.25,1.0698 -20.25,-2.511 z m -202.5,3.9195 c 0,-3.2976 -6.3138,-5.4087 -24,-8.0247 -13.2,-1.9527 -25.6875,-3.6516 -27.75,-3.7755 -6.9648,-0.4185 -3.8112,5.8251 6,11.8791 12.1698,7.5093 45.75,7.4514 45.75,-0.078 z m -704.4507,-12.588 c -0.9576,-2.3931 -1.6686,-1.6824 -1.8126,1.8126 -0.129,3.1623 0.579,4.9344 1.5759,3.9375 0.9969,-0.9969 1.1034,-3.5844 0.237,-5.7501 z m 717.6378,-2.1807 c 7.5582,-4.7856 1.2501,-11.5596 -12.2205,-13.1232 -7.1316,-0.8274 -34.5666,-4.281 -60.9666,-7.6743 -114.8163,-14.7576 -168,-17.7522 -168,-9.4593 0,4.7883 11.559,6.7188 61.5,10.272 46.7745,3.3279 88.1184,8.1612 129,15.0807 50.0745,8.4756 45.7134,8.0535 50.6871,4.9041 z m -711.6378,-9.8193 c -0.9576,-2.3931 -1.6686,-1.6824 -1.8126,1.8126 -0.129,3.1623 0.579,4.9344 1.5759,3.9375 0.9969,-0.9969 1.1034,-3.5844 0.237,-5.7501 z m 833.0199,-0.9225 c 26.2329,-7.9587 46.9524,-25.6599 59.7132,-51.015 17.9829,-35.7309 18.1353,-113.1696 0.3036,-154.5 -22.3662,-51.8415 -53.8011,-85.656 -101.2266,-108.8898 -33.6693,-16.4949 -38.4975,-18.0933 -37.3371,-12.3606 0.5379,2.6553 5.7684,6.4707 11.6241,8.4783 32.0721,10.9959 82.1406,56.4408 99.456,90.2721 14.8125,28.9404 19.9938,48.3132 22.0011,82.2603 4.9734,84.1164 -29.5902,138.4986 -88.2402,138.8364 -16.7094,0.096 -25.8234,3.6141 -22.6533,8.7432 2.6205,4.2399 40.4007,3.0165 56.3592,-1.8249 z M 3268.307,2835.91 c -4.3665,-6.5982 -7.9389,-14.646 -7.9389,-17.8839 0,-3.2382 -1.4595,-6.7893 -3.243,-7.8918 -1.7838,-1.1022 -2.433,-5.232 -1.443,-9.177 1.314,-5.235 0.5538,-7.1727 -2.814,-7.1727 -5.9841,0 -3.7953,10.6863 6.7587,33 8.856,18.7233 12.9237,24.8175 15.1077,22.6335 0.8313,-0.8313 -2.061,-6.9099 -6.4275,-13.5081 z m 574.0611,7.3941 c 0,-2.1111 -3.7125,-4.5327 -8.25,-5.3811 -4.5375,-0.8481 -15.675,-2.9496 -24.75,-4.6695 -42.3972,-8.0349 -71.5149,-12.9813 -82.5,-14.0148 -6.6,-0.621 -25.5,-2.5446 -42,-4.275 -79.3602,-8.3214 -85.9587,-8.4549 -88.4544,-1.7895 -2.9286,7.8228 2.073,9.8373 25.5699,10.2993 19.9074,0.3912 35.7417,1.7322 73.3845,6.2139 14.025,1.6698 43.725,5.19 66,7.8225 22.275,2.6325 47.925,6.4935 57,8.5803 17.6802,4.0653 24,3.3318 24,-2.7861 z m 94.5327,-2.3151 c 25.8867,-7.9695 42.8088,-23.5038 54.8823,-50.3802 10.8165,-24.0789 12.5859,-33.3486 12.507,-65.5218 -0.063,-25.5348 -1.521,-36.1551 -7.3989,-53.8884 -9.798,-29.559 -30.8994,-62.6313 -52.3425,-82.0362 -16.9581,-15.3462 -60.8322,-41.3778 -69.7386,-41.3778 -2.6643,0 -6.4383,6.6759 -9.7521,17.25 -2.9733,9.4875 -8.1093,22.65 -11.4135,29.25 -7.9089,15.7986 -31.1523,49.0545 -40.8714,58.4775 -6.5001,6.3024 -6.918,7.6305 -2.6583,8.4507 9.1446,1.7613 43.4295,-17.0121 54.3336,-29.751 12.5142,-14.6199 30.8892,-19.2546 40.7952,-10.29 11.7102,10.5978 12.3174,20.1669 2.5026,39.4311 -11.5569,22.683 -12.573,23.8425 -31.4982,35.949 -17.2992,11.0661 -17.8617,12.063 -11.7429,20.8152 19.3515,27.6807 34.863,77.1135 34.863,111.1038 l 0,16.3137 12.75,-0.045 c 7.0125,-0.03 18.1647,-1.7124 24.7827,-3.75 z m -606.0327,-5.2044 c 1.0197,-1.65 -0.9255,-3 -4.323,-3 -3.3972,0 -6.177,1.35 -6.177,3 0,1.65 1.9452,3 4.323,3 2.3775,0 5.1573,-1.35 6.177,-3 z m 81,-6 c -2.3937,-3.873 -67.5066,-3.873 -73.5,0 -3.0303,1.9584 8.5398,2.9232 35.427,2.9541 25.8654,0.03 39.2742,-1.0107 38.073,-2.9541 z m 72,0 c -1.0197,-1.65 -9.1197,-3 -18,-3 -8.8803,0 -16.9803,1.35 -18,3 -1.1646,1.8846 5.5278,3 18,3 12.4722,0 19.1646,-1.1154 18,-3 z m 18.081,0.132 c -0.9753,-1.578 -3.7548,-2.1084 -6.177,-1.179 -6.2013,2.3796 -5.4705,4.0479 1.773,4.0479 3.3975,0 5.3793,-1.2909 4.404,-2.8689 z m 340.419,-9.5577 c 0,-13.0506 -10.9878,-49.0431 -20.4765,-67.0734 -10.3185,-19.6077 -33.5436,-41.2767 -56.0235,-52.2705 -35.8464,-17.5305 -38.1372,-16.3989 -32.9391,16.2705 2.1003,13.2 5.2797,40.1028 7.0653,59.7837 1.7859,19.6812 4.7061,36.6855 6.4893,37.7877 1.7835,1.1022 16.4235,3.6837 32.5338,5.7369 16.11,2.0529 33.9171,4.8228 39.5709,6.1551 20.5254,4.8369 23.7798,3.9624 23.7798,-6.39 z m -642,-11.3592 c 0,-1.5321 -1.7835,-4.5696 -3.963,-6.75 -12.0753,-12.0786 -17.5539,-56.2623 -10.7217,-86.4642 1.6797,-7.425 3.7989,-17.2125 4.7097,-21.75 0.9108,-4.5375 2.8527,-8.25 4.3155,-8.25 1.4628,0 2.6595,-3.375 2.6595,-7.5 0,-4.125 1.3077,-7.5 2.9058,-7.5 1.5984,0 2.046,-2.241 0.9948,-4.98 -1.7691,-4.6101 -9.9261,14.4816 -21.4449,50.193 -4.4958,13.938 -4.44,53.0637 0.093,66.0894 6.8757,19.7526 20.4501,37.6161 20.4501,26.9118 z m 508.4337,-22.308 c -1.1583,-11.7735 -1.1805,-20.5194 -0.048,-19.4352 1.1313,1.0839 2.9703,11.2089 4.0863,22.5 2.0001,20.2356 2.1615,20.5419 11.2887,21.4326 l 9.2595,0.9033 -1.2516,-17.4033 c -0.6885,-9.5721 -3.2601,-30.9036 -5.7144,-47.4036 -2.4543,-16.5 -5.6526,-38.775 -7.107,-49.5 -6.8757,-50.7009 -25.8495,-130.0677 -34.6338,-144.8718 -3.8733,-6.5277 -13.3125,-3.888 -13.3125,3.723 0,2.8653 2.7579,13.1835 6.129,22.929 14.919,43.1334 28.7871,114.7167 31.3305,161.7198 1.7205,31.7946 -2.7921,21.0012 -7.5255,-18 -2.0028,-16.5 -6.3444,-42.825 -9.6483,-58.5 -3.3039,-15.675 -6.612,-32.55 -7.3509,-37.5 -0.7389,-4.95 -2.4477,-11.7 -3.7974,-15 -1.3494,-3.3 -4.089,-12.075 -6.0879,-19.5 -1.9989,-7.425 -4.8528,-15.8442 -6.342,-18.7092 -1.4892,-2.8653 -2.7075,-7.2528 -2.7075,-9.75 0,-5.4933 -7.0707,-5.9853 -11.3667,-0.7908 -3.8838,4.6962 -1.344,18.9255 4.1988,23.5257 2.2923,1.9026 4.1679,5.4609 4.1679,7.9077 0,2.4471 3.294,15.4443 7.32,28.8828 4.0263,13.4385 8.094,29.6538 9.0396,36.0339 0.9453,6.3801 2.2314,12.4551 2.8575,13.5 0.6261,1.0449 1.926,9.9999 2.889,19.8999 0.9627,9.9 3.1326,25.2717 4.8222,34.1595 1.6893,8.8878 3.0717,30.1938 3.0717,47.3466 0,29.5866 0.3465,31.3182 6.75,33.7383 3.7125,1.4031 7.884,1.8798 9.27,1.0596 1.386,-0.8205 1.572,-11.1246 0.4137,-22.8978 z m -20.7876,-7.1562 c -2.6112,-34.5591 -6.7353,-72.0306 -9.1665,-83.2896 l -1.9521,-9.0396 -33.5136,1.0779 c -18.4326,0.5928 -34.6194,2.121 -35.9703,3.396 -1.3509,1.275 -3.7653,21.0576 -5.3652,43.9617 -1.5999,22.9041 -3.1944,45.6936 -3.5436,50.6436 l -0.6348,9 28.5,4.8978 c 15.675,2.6937 36.4041,5.0562 46.0647,5.25 l 17.5647,0.3522 -1.9833,-26.25 z m -727.8468,-5.0025 c 12.4854,-12.2004 29.1954,-27.7098 37.1331,-34.4649 7.938,-6.7554 13.338,-12.4323 12,-12.6153 -1.3377,-0.183 -11.2116,-0.078 -21.9417,0.234 -26.2257,0.7632 -48.7668,-7.7766 -64.9932,-24.6237 -13.5648,-14.0841 -27.9975,-35.8677 -27.9975,-42.2583 0,-2.2542 -2.3124,-8.6937 -5.1384,-14.3097 -7.5741,-15.051 -8.8752,-61.7301 -2.4168,-86.7108 6.6366,-25.6701 19.6212,-52.5306 32.8608,-67.977 5.8818,-6.8622 10.6944,-15.3684 10.6944,-18.9027 0,-6.2727 -0.249,-6.2361 -10.4433,1.5399 -21.4029,16.3248 -46.6224,60.0492 -52.4946,91.0122 -9.5148,50.1717 4.0854,103.9347 34.986,138.3036 16.2909,18.1194 28.9524,25.1484 54.2757,30.1302 10.272,2.0211 18.6762,4.1502 18.6762,4.7313 0,3.3267 -27.0096,28.1655 -35.1009,32.2803 -32.9736,16.7676 -51.8814,-9.3135 -21.0534,-29.0409 8.7279,-5.5851 8.5125,-11.0769 -0.4341,-11.0769 -5.6283,0 -21.5607,15.3441 -27.0516,26.0529 -7.8174,15.2454 -0.9669,30.1275 17.64,38.322 16.8816,7.4346 25.7796,3.8214 50.7993,-20.6274 z m 258.2007,11.1525 c 0,-10.4466 -0.8748,-13.2252 -3.3759,-10.7241 -2.0727,2.0727 -2.5992,7.5156 -1.3641,14.1 2.7786,14.811 4.74,13.4139 4.74,-3.3759 z m 292.6767,3.5046 c -3.2028,-2.4225 -8.2839,-4.4046 -11.2908,-4.4046 -3.0069,0 -7.8114,-1.2366 -10.6767,-2.7477 -14.8677,-7.8426 -28.5042,-12.4998 -33.078,-11.2974 -3.7173,0.9774 -3.2715,1.4451 1.6188,1.6971 3.7125,0.192 6.75,1.698 6.75,3.348 0,1.65 2.5875,3 5.7501,3 3.1623,0 6.1998,1.0758 6.75,2.3907 1.1193,2.676 28.5126,12.1896 35.4999,12.3288 3.3705,0.066 3.0384,-1.0158 -1.3233,-4.3149 z m 19.4364,-26.1222 c 10.3299,-21.3243 17.6748,-57.6945 12.6636,-62.7057 -2.1969,-2.1969 -8.4525,-2.0643 -20.7123,0.4395 -9.6603,1.9731 -29.7144,6.0411 -44.5644,9.0396 -14.85,2.9988 -34.1904,6.9129 -42.9789,8.6982 -8.7885,1.7853 -20.0385,3.246 -24.9999,3.246 -5.8653,0 -8.5959,1.3119 -7.8054,3.75 2.4012,7.4067 101.7741,55.0239 117.0573,56.0913 1.2504,0.087 6.3534,-8.2641 11.34,-18.5589 z m -599.2668,-0.6297 c 5.3097,-2.391 13.5954,-7.6869 18.4128,-11.7687 l 8.7588,-7.4211 -11.0589,-2.0748 c -17.7864,-3.3366 -41.1549,9.9564 -36.9171,21.0003 2.214,5.769 8.406,5.8476 20.8044,0.264 z m 504.8304,-3.2481 c -3.2028,-2.4225 -7.8486,-4.4046 -10.3236,-4.4046 -3.399,0 -3.0753,1.0776 1.3236,4.4046 3.2028,2.4225 7.8483,4.4046 10.3233,4.4046 3.399,0 3.0753,-1.0776 -1.3233,-4.4046 z m -20.4267,-9.4725 c -2.8875,-0.7545 -5.25,-2.6229 -5.25,-4.152 0,-1.5291 -2.025,-2.7801 -4.5,-2.7801 -2.475,0 -4.5,-1.059 -4.5,-2.3532 0,-1.2942 -4.05,-4.7454 -9,-7.6695 -4.95,-2.9241 -9,-4.7457 -9,-4.0482 0,3.2322 28.5288,23.031 32.7423,22.7229 3.8238,-0.279 3.7272,-0.6174 -0.4923,-1.7199 z m -150.4848,-33.1668 c -3.2772,-3.2772 -5.5245,1.9344 -3.1716,7.3554 2.2311,5.1399 2.3928,5.1354 3.636,-0.105 0.7155,-3.0168 0.5064,-6.2793 -0.4644,-7.2501 z m -241.1106,-3.0825 c 33.8574,-14.9769 58.3074,-69.4809 54.8103,-122.1828 -2.3553,-35.4942 -5.0613,-47.196 -15.8028,-68.3397 -11.5491,-22.7337 -30.3921,-43.233 -50.6544,-55.1073 -12.7554,-7.4754 -13.7214,-7.6152 -18.4833,-2.6772 -4.7043,4.8786 -4.6623,5.4306 0.6591,8.6673 37.4391,22.7721 56.9673,53.9373 65.2596,104.1492 2.9529,17.8821 2.7078,24.2523 -1.6242,42.2004 -11.8242,48.9894 -24.5556,67.7508 -55.1631,81.2898 -31.8939,14.1081 -70.9893,-6.246 -89.5233,-46.6083 -7.4814,-16.2924 -8.5254,-22.0755 -8.499,-47.0742 0.039,-35.2512 4.5024,-58.0884 16.2762,-83.2479 9.4827,-20.2644 11.1339,-27.7521 6.1194,-27.7521 -4.0701,0 -23.8626,27.3903 -23.9547,33.15 -0.042,2.5575 -1.272,5.9325 -2.736,7.5 -1.464,1.5675 -4.839,11.7114 -7.5,22.5417 -16.4298,66.8676 11.8152,138.4596 61.6572,156.2805 19.5246,6.981 49.8357,5.7585 69.159,-2.7894 z m 417.4752,-3.729 c 12.9966,-3.2745 26.9229,-5.9538 30.9474,-5.9538 4.0245,0 9.6399,-1.2429 12.4788,-2.7624 4.8048,-2.5713 42.1773,-8.1222 76.944,-11.4282 8.25,-0.7845 16.6704,-2.7885 18.7119,-4.4535 2.0415,-1.665 5.4165,-2.3889 7.5,-1.6089 2.0835,0.7803 9.8631,0.3123 17.2881,-1.0398 24.3171,-4.4277 -44.6712,0.171 -73.5,4.9002 -55.5513,9.1116 -63.2862,10.4865 -75,13.3332 -18.0819,4.3944 -25.5,3.8232 -25.5,-1.9635 0,-4.1232 -1.3794,-3.7272 -7.6998,2.2104 -6.7599,6.3507 -10.5126,7.2327 -30.75,7.2261 -37.6986,0 -58.2588,-13.7952 -67.788,-45.4443 -11.5857,-38.4789 -2.2788,-78.2481 20.9028,-89.3187 14.9118,-7.1214 59.8209,0.297 73.461,12.135 2.5443,2.2083 8.6193,3.7224 13.5,3.3645 l 8.874,-0.6501 -0.228,27.6054 c -0.126,15.183 0.8034,26.967 2.0655,26.187 1.2624,-0.7803 3.4071,0.5685 4.7661,2.9967 1.359,2.4285 9.8796,6.4452 18.9345,8.9259 9.0549,2.4804 19.8384,5.442 23.9634,6.5808 8.6223,2.3805 15,6.8178 15,10.4355 0,4.6068 -19.368,6.1794 -33,2.6799 -32.2077,-8.2683 -42.0534,-6.5772 -41.9541,7.206 0.087,12.2322 3.5811,14.1672 19.6404,10.8804 50.1897,-10.272 73.6911,-14.0196 113.8137,-18.1488 18.8541,-1.9404 34.2861,-4.9992 36,-7.1358 1.65,-2.0568 5.025,-4.5621 7.5,-5.5671 2.475,-1.005 -0.9,-1.2012 -7.5,-0.4356 -7.3278,0.8499 -18.4242,-0.8031 -28.5,-4.2459 -17.1408,-5.8572 -25.401,-5.4426 -22.872,1.1475 0.8514,2.2191 -1.4823,4.5795 -5.5326,5.5962 -8.6094,2.1606 -34.1697,-1.0926 -36.3543,-4.6272 -0.8775,-1.4193 -6.1983,-2.5809 -11.8239,-2.5809 -8.187,0 -9.8574,-0.9678 -8.3682,-4.8489 1.5849,-4.1304 0.9039,-4.3371 -4.5942,-1.3944 -4.5471,2.4333 -8.1699,2.5365 -12.2577,0.3489 -3.1914,-1.7082 -8.5914,-3.1056 -12,-3.1056 -7.503,0 -8.3769,-5.8554 -0.9471,-6.348 4.8198,-0.3195 4.8057,-0.4632 -0.171,-1.7529 -5.9598,-1.5444 -12.7029,-15.7299 -8.9412,-18.8088 1.299,-1.0632 7.0866,-1.0083 12.8616,0.123 10.0146,1.9593 10.1607,2.1642 3.1605,4.4253 -6.6162,2.1372 -6.7821,2.5662 -1.6839,4.3545 3.1104,1.0911 9.6828,-0.03 14.6058,-2.4813 l 8.9505,-4.4652 -14.7666,-3.8904 c -8.1213,-2.1396 -15.5622,-3.9498 -16.5348,-4.0224 -3.2376,-0.243 -8.2017,-14.136 -6.2013,-17.3562 1.0833,-1.7445 5.3448,-3.6858 9.4698,-4.3146 5.559,-0.8472 1.6776,-2.9514 -15,-8.1315 -12.375,-3.8433 -30.6,-9.5874 -40.5,-12.7641 -27.645,-8.871 -49.9557,-10.4082 -60.5163,-4.17 -11.9436,7.0551 -21.0201,21.1977 -24.9579,38.8887 -3.4527,15.5109 -3.4512,45.0414 0,52.7151 14.7333,32.7348 19.9575,39.5049 38.9715,50.5017 14.4348,8.3484 52.9791,8.5533 85.1298,0.4524 z m -169.1298,-5.3538 c 0,-2.97 1.5267,-6.9267 3.3924,-8.7924 2.5233,-2.5233 2.3556,-6.9045 -0.6549,-17.1 -2.226,-7.5393 -5.1027,-13.7076 -6.3924,-13.7076 -1.2897,0 -2.3451,-1.8807 -2.3451,-4.179 0,-2.2986 -2.1354,-4.9986 -4.7454,-6 -9.4989,-3.645 -11.0229,-1.6701 -3.8031,4.929 9.7284,8.8923 14.0265,19.9884 11.3301,29.25 -3.2673,11.223 -3.1659,21 0.219,21 1.65,0 3,-2.43 3,-5.4 z m -265.8147,-14.4798 c 14.8476,-9.5004 32.4198,-30.2628 31.158,-36.8145 -0.5016,-2.6052 -3.5967,-5.1822 -6.8778,-5.7264 -14.2593,-2.3655 -40.2507,-17.9766 -55.8837,-33.5655 -17.3235,-17.2743 -32.3361,-42.8187 -38.4003,-65.3394 -1.8771,-6.9708 -4.4946,-12.6744 -5.817,-12.6744 -2.379,0 -6.3858,11.2521 -12.2856,34.5 -4.0251,15.8604 -3.9207,59.4945 0.174,73.1649 12.6855,42.3408 57.4233,65.9766 87.9312,46.4553 z m 406.8147,5.1894 c -2.475,-1.3794 -12.237,-3.3723 -21.6936,-4.4283 -24.2781,-2.7117 -50.3064,-17.8035 -50.3064,-29.1693 0,-2.9469 -1.35,-6.1923 -3,-7.212 -1.65,-1.0197 -3,-8.3247 -3,-16.2333 0,-25.6707 17.148,-42.3123 48.1434,-46.722 31.5516,-4.4886 18.7479,-11.922 -20.6778,-12.0048 -17.5698,-0.036 -19.5855,0.6516 -26.1996,8.946 -10.5279,13.2036 -14.9976,36.4323 -10.4886,54.5091 5.088,20.3976 16.6431,38.8758 29.6328,47.3862 9.4992,6.2238 14.7471,7.278 36.5898,7.3512 15.2091,0.051 23.6838,-0.927 21,-2.4228 z m 13.2792,-22.005 c -1.8009,-5.6748 -1.9629,-5.6637 -6.2343,0.4347 -3.0024,4.2864 -7.6425,6.2607 -14.715,6.2607 -13.7811,0 -13.2669,4.3461 0.5991,5.0658 5.9964,0.3111 12.363,2.0262 14.148,3.8112 4.2138,4.2138 8.8152,-7.3395 6.2022,-15.5724 z m -166.2792,8.8629 c 0,-9.8775 -8.2503,-20.1675 -16.17,-20.1675 -9.3102,0 -11.2152,2.6334 -7.3389,10.1445 8.8299,17.1096 23.5089,23.3682 23.5089,10.023 z m -27.9507,-5.73 c -0.9576,-2.3931 -1.6686,-1.6824 -1.8123,1.8126 -0.129,3.1623 0.5787,4.9344 1.5756,3.9375 0.9969,-0.9969 1.1034,-3.5844 0.237,-5.7501 z m 154.7577,4.5948 c -2.031,-0.822 -6.081,-0.8718 -9,-0.111 -2.9187,0.7605 -1.257,1.4328 3.693,1.494 4.95,0.06 7.3383,-0.5613 5.307,-1.383 z m 247.3806,0.156 c -0.9969,-0.9969 -3.5844,-1.1034 -5.7501,-0.237 -2.3931,0.9576 -1.6824,1.6683 1.8126,1.8123 3.1623,0.129 4.9344,-0.5787 3.9375,-1.5756 z m 27.0975,-0.249 c -2.8683,-0.7509 -8.2683,-0.7782 -12,-0.06 -3.7317,0.7176 -1.3851,1.3317 5.2149,1.365 6.6,0.033 9.6534,-0.5538 6.7851,-1.3047 z m -298.6347,-8.6211 c -8.3256,-5.8317 -15.6504,-19.6344 -15.6504,-29.4918 0,-4.1097 -1.35,-8.3064 -3,-9.3261 -1.7853,-1.1034 -3,2.4687 -3,8.823 0,5.8722 1.35,10.677 3,10.677 1.65,0 3,2.2755 3,5.0568 0,6.483 11.6361,18.9432 17.6904,18.9432 3.3213,0 2.7402,-1.3338 -2.04,-4.6821 z m 41.0043,-7.7769 7.1544,-5.541 -13.2369,0 c -21.2055,0 -34.6113,-13.4865 -20.7693,-20.8944 7.416,-3.969 19.1307,-4.0431 16.6971,-0.105 -1.0197,1.65 -4.6398,3 -8.0445,3 -5.25,0 -5.6043,0.7059 -2.3322,4.6485 2.6082,3.1428 7.8291,4.3575 16.1172,3.75 9.8589,-0.7227 12.2595,-2.0469 12.2595,-6.7632 0,-3.6996 -2.769,-6.6351 -7.5,-7.9512 -8.4063,-2.3382 -7.8699,-3.096 3,-4.2375 9.3783,-0.9849 14.9955,3.3813 15.015,11.6706 0,5.8044 0.6834,5.5671 7.392,-2.6172 7.3869,-9.0117 10.5276,-28.5 4.593,-28.5 -1.65,0 -3,1.62 -3,3.6 0,6.0891 -5.3772,-1.4607 -6.8373,-9.6 -1.1532,-6.4269 -1.404,-6.1365 -1.7541,2.0301 -0.3213,7.497 -2.4273,10.5375 -9.8694,14.25 -5.2035,2.5959 -11.2281,4.7199 -13.3875,4.7199 -2.1597,0 -11.4798,2.826 -20.7114,6.2799 -15.1368,5.6634 -16.6941,7.0626 -15.8625,14.25 0.6813,5.8893 4.0548,9.5133 12.9222,13.8816 9.5268,4.6932 10.7871,6.1548 6.1143,7.0923 -3.2373,0.6495 -6.3873,-0.3231 -7.0002,-2.1615 -1.167,-3.5007 -9.6141,-4.7511 -9.6141,-1.4229 0,1.0554 2.328,3.6213 5.1732,5.7021 6.6399,4.8549 24.0669,2.2104 33.4815,-5.0805 z m 22.8453,-35.541 c -1.0197,-1.65 0.3303,-3 3,-3 2.6697,0 4.0197,1.35 3,3 -1.0197,1.65 -2.3697,3 -3,3 -0.6303,0 -1.9803,-1.35 -3,-3 z m -190.5198,20.2761 c 0.03,-6.9027 14.6937,-20.7303 40.6074,-38.2821 25.9668,-17.5878 28.7295,-20.8419 29.8188,-35.1264 0.4767,-6.2523 0.225,-8.6676 -0.5583,-5.3676 -0.7839,3.3 -3.3204,7.0797 -5.6367,8.3991 -2.3163,1.3194 -4.2114,4.9401 -4.2114,8.0457 0,5.2068 -14.0991,17.9925 -19.9632,18.1032 -1.3953,0.03 -6.7329,3.7389 -11.8617,8.25 -5.1285,4.5111 -13.566,11.4414 -18.75,15.4008 -5.1837,3.9591 -9.4251,9.0216 -9.4251,11.25 0,2.2281 -1.0788,4.0512 -2.3973,4.0512 -2.6727,0 -9.6138,17.5377 -9.5829,24.213 0,2.3577 2.7021,0.237 5.9802,-4.713 3.2784,-4.95 5.9694,-11.3508 5.9802,-14.2239 z m 237.7698,16.737 c -2.0625,-0.8322 -5.4375,-0.8322 -7.5,0 -2.0625,0.8322 -0.375,1.5132 3.75,1.5132 4.125,0 5.8125,-0.681 3.75,-1.5132 z m 200.5104,-2.1993 c -1.9107,-2.3025 -8.151,-5.0637 -13.8672,-6.1359 -11.6343,-2.1825 -14.0433,-7.4898 -3.6432,-8.0259 5.3004,-0.273 5.5917,-0.6486 1.356,-1.7478 -2.967,-0.7698 -7.353,0.225 -9.7473,2.2131 -3.1284,2.5962 -6.6756,2.7639 -12.606,0.5958 -4.539,-1.6596 -14.3277,-4.6644 -21.7527,-6.6777 -7.425,-2.013 -16.6011,-4.8696 -20.3913,-6.3477 -3.7899,-1.4784 -9.5274,-2.6877 -12.75,-2.6877 -3.2223,0 -5.8587,-1.2 -5.8587,-2.6667 0,-1.4667 -1.6875,-2.5662 -3.75,-2.4435 -7.4076,0.4407 -29.4162,-4.7316 -30.9936,-7.2837 -0.8856,-1.4334 -5.5011,-2.6061 -10.2564,-2.6061 -4.7553,0 -9.3855,-1.197 -10.2897,-2.6598 -0.9042,-1.4631 -6.7215,-3.5673 -12.927,-4.6761 -6.2058,-1.1088 -18.4215,-4.6368 -27.1458,-7.8399 -17.1735,-6.3054 -27.6375,-7.4553 -27.6375,-3.0372 0,2.853 28.551,12.213 37.2525,12.213 2.6559,0 7.173,1.236 10.0383,2.7465 4.9098,2.5887 15.5331,5.8032 69.7092,21.0951 47.6457,13.4481 67.5138,20.3886 67.875,23.7099 0.207,1.8966 0.5439,4.1235 0.75,4.9485 0.207,0.825 9.3153,1.5 20.2422,1.5 16.6578,0 19.3062,-0.6762 16.3932,-4.1862 z m 88.371,-3.7725 c 24.2277,-11.8629 49.4316,-42.3819 62.4642,-75.6366 7.203,-18.3789 13.9398,-52.2078 13.7118,-68.8509 -0.213,-15.6264 -6.1857,-46.932 -9.6042,-50.3505 -1.2117,-1.2117 -2.2032,-4.6965 -2.2032,-7.7439 0,-3.0474 -1.1802,-7.8849 -2.6229,-10.7502 -11.9097,-23.6544 -17.8773,-34.6179 -27.3288,-50.2092 -6.0012,-9.9 -12.8547,-21.3426 -15.2298,-25.4283 -4.3395,-7.4646 -38.5071,-54.2676 -41.664,-57.0717 -0.9288,-0.825 -5.2431,-6.225 -9.5877,-12 -4.3446,-5.775 -17.1618,-20.3913 -28.4829,-32.4804 l -20.5839,-21.9804 -16.5,12.126 c -44.9022,32.9994 -53.2392,38.8146 -62.4624,43.5711 -8.0619,4.1574 -9.2904,5.9469 -6.4398,9.3816 3.4824,4.1958 25.965,15.5793 43.4022,21.9753 27.9729,10.2606 88.5864,13.8699 88.4445,5.2665 -0.03,-1.8477 -13.521,-19.5597 -29.979,-39.3597 -16.4583,-19.8 -28.7046,-36.4095 -27.2145,-36.9099 3.1269,-1.0506 23.8983,20.5692 42.7074,44.4522 7.1289,9.0516 14.6718,18.2463 16.7622,20.4327 2.0904,2.1861 8.0943,10.2861 13.3419,18 5.2479,7.7136 10.3095,14.7 11.2479,15.525 10.7727,9.4689 50.2467,82.9551 59.874,111.4632 16.7958,49.7355 1.176,116.3205 -37.617,160.3566 -7.7796,8.8305 -29.1369,19.1802 -39.5805,19.1802 -9.3381,0 -17.2683,6.6903 -14.0682,11.8686 3.4881,5.6439 22.6437,3.2859 39.2127,-4.8273 z m -310.6314,-0.171 c -2.475,-0.9102 -6.7773,-3.6357 -9.561,-6.057 -5.5788,-4.8531 -11.439,-2.8743 -11.439,3.8622 0,3.123 3.5391,4.2573 12.75,4.0863 7.0125,-0.129 10.725,-0.9816 8.25,-1.8915 z m -247.0131,-10.6218 c -0.8322,-2.0625 -1.5132,-0.375 -1.5132,3.75 0,4.125 0.681,5.8125 1.5132,3.75 0.8322,-2.0625 0.8322,-5.4375 0,-7.5 z m 219.0624,3.1875 c -0.9576,-2.3931 -1.6686,-1.6824 -1.8123,1.8126 -0.129,3.1623 0.5787,4.9344 1.5756,3.9375 0.9969,-0.9969 1.1034,-3.5844 0.237,-5.7501 z m 168.1383,1.7499 c -0.9969,-0.9969 -3.5844,-1.1034 -5.7501,-0.237 -2.3931,0.9576 -1.6824,1.6686 1.8126,1.8126 3.1623,0.129 4.9344,-0.5787 3.9375,-1.5756 z m -54.6777,-6.4077 c -4.9449,-0.7266 -9.9867,-2.8869 -11.2041,-4.8003 -1.4535,-2.2842 -2.2296,-2.3628 -2.2599,-0.228 -0.078,5.4261 3.5067,7.2717 13.2042,6.8004 l 9.2499,-0.4494 -8.9901,-1.3212 z m 107.7189,-3.7509 c -1.6341,-1.6341 -8.9916,-3.4839 -16.35,-4.1106 -7.3584,-0.6267 -9.6663,-0.5541 -5.1288,0.162 4.5375,0.7155 8.25,2.565 8.25,4.1106 0,1.5456 3.645,2.8098 8.1,2.8098 5.3478,0 7.0905,-1.0095 5.1288,-2.9712 z m 111.3192,-3.3663 c 21.6645,-10.1835 43.2126,-43.1433 54.2613,-82.9971 7.0488,-25.4265 5.9622,-26.247 -34.2222,-25.842 -28.0581,0.282 -76.7832,7.3728 -81.2301,11.8197 -0.8526,0.8523 0.222,7.9188 2.3892,15.7032 2.1663,7.7847 7.833,29.0037 12.5919,47.1537 4.7592,18.15 9.2877,34.6875 10.0632,36.75 2.181,5.7993 21.2013,4.4376 36.1467,-2.5875 z m -709.098,-7.1625 c 0.246,-4.125 0.585,-9.123 0.75,-11.1066 0.165,-1.9836 -5.1,-5.025 -11.7,-6.759 -18.2697,-4.7994 -31.4367,-13.0059 -47.3364,-29.5023 -25.0593,-25.9992 -33.2151,-48.1203 -33.4158,-90.6321 -0.114,-24.2826 1.2096,-33.7164 6.9492,-49.5 8.3469,-22.9545 19.1406,-42.6618 30.8649,-56.3544 9.5874,-11.1966 10.3185,-14.2821 3.9633,-16.7208 -8.8464,-3.3948 -40.6779,40.2273 -52.2294,71.5752 -12.1812,33.0573 -11.4006,82.1577 1.7889,112.5 10.386,23.8932 15.1965,31.1616 30.9228,46.7256 17.8551,17.6706 30.7293,26.4855 47.6757,32.6442 17.0085,6.1809 21.2574,5.6208 21.7668,-2.8698 z m 324.3936,-6.7827 c 6.9612,-3.0144 18.4005,-7.3272 25.4214,-9.5841 7.0206,-2.2569 12.0321,-4.836 11.1366,-5.7318 -3.1593,-3.159 -16.4016,-3.5661 -16.4016,-0.504 0,1.7064 -3.3114,3.1026 -7.3587,3.1026 -16.1334,0 -35.8848,14.2683 -32.3835,23.3934 1.3647,3.5556 2.0754,3.4785 4.2828,-0.4662 1.4559,-2.601 8.3421,-7.1955 15.303,-10.2099 z m 134.1564,11.2827 c 0,-1.65 -2.7,-3 -6,-3 -7.389,0 -7.9452,-5.1027 -0.75,-6.8784 2.8875,-0.7125 1.875,-0.6951 -2.25,0.039 -4.125,0.7341 -10.5375,1.5609 -14.25,1.8369 -9.4815,0.7056 -8.3973,3.2211 3,6.96 13.1124,4.3017 20.25,4.6689 20.25,1.0422 z m 151.5576,-34.0317 c -4.2855,-14.0505 -9.4269,-26.1021 -11.4249,-26.7813 -4.3311,-1.4724 -15.096,13.5642 -23.1315,32.3106 l -5.7912,13.5096 10.7613,4.4964 c 5.919,2.4732 12.9591,4.5444 15.645,4.6026 2.6862,0.06 8.2587,1.989 12.3837,4.2903 6.7683,3.7755 7.5903,3.6438 8.4249,-1.3491 0.5088,-3.0429 -2.5815,-17.0286 -6.8673,-31.0791 z m -45.7506,29.064 c -2.031,-0.822 -6.081,-0.8718 -9,-0.111 -2.9187,0.7605 -1.257,1.4328 3.693,1.494 4.95,0.06 7.3383,-0.5613 5.307,-1.383 z m -15.807,-5.2041 c 0,-0.6444 -4.6302,-1.7124 -10.2894,-2.373 -5.6595,-0.6606 -9.6297,-0.132 -8.823,1.1718 1.4517,2.349 19.1124,3.459 19.1124,1.2012 z m -468.2913,-17.559 c 9.276,-7.8663 30.2913,-39.2778 30.2913,-45.2766 0,-1.5732 -8.2248,6.1155 -18.2772,17.0859 -10.0524,10.9704 -21.5391,20.7651 -25.5261,21.7656 -7.3728,1.8507 -12.513,12.981 -8.7822,19.0176 2.1603,3.4953 5.6421,1.5285 22.2942,-12.5925 z m 233.7438,4.4808 c 3.0273,-2.8551 3.0864,-3.75 0.249,-3.75 -4.5663,0 -14.7006,8.8464 -14.7006,12.8322 0,2.754 5.7018,-0.8289 14.4525,-9.0822 z m 210.5475,8.3076 c 0,-1.2693 -3.7125,-3.1188 -8.25,-4.1103 -4.5375,-0.9915 -11.2875,-2.6679 -15,-3.7251 -4.1175,-1.1724 -6.75,-0.6156 -6.75,1.428 0,1.8423 3.375,3.3498 7.5,3.3498 4.125,0 7.5009,1.0125 7.5021,2.25 0,1.2375 3.3762,2.4447 7.5,2.6826 4.1238,0.237 7.4979,-0.6057 7.4979,-1.875 z m 38.1726,-18.0414 c 18.2898,-54.213 70.8267,-80.2488 165.15,-81.843 33.5481,-0.567 39.6858,-1.3821 38.9547,-5.1732 -0.6966,-3.6129 -7.0692,-4.6155 -32.3226,-5.0868 -65.1528,-1.215 -130.7829,16.9149 -157.3296,43.4616 -13.0038,13.0038 -33.2028,52.1868 -30.5142,59.193 3.3087,8.6226 11.382,3.3189 16.0617,-10.5516 z m -75.6726,5.9838 c -8.1942,-3.5211 -10.5,-3.5211 -10.5,0 0,1.65 3.7125,2.9052 8.25,2.7891 7.3104,-0.186 7.5669,-0.5043 2.25,-2.7891 z m 56.604,-12.5202 c 6.8454,-19.2735 23.0658,-43.2033 35.7765,-52.7802 29.8977,-22.527 82.0941,-36.7005 141.4188,-38.4003 22.9896,-0.6588 43.1355,-2.5341 44.7687,-4.1673 1.959,-1.959 1.8192,-5.4936 -0.4113,-10.3887 -4.3812,-9.6159 -17.0838,-11.9985 -50.9907,-9.5637 -51.471,3.696 -84.9081,11.0436 -114.666,25.197 -18.8124,8.9475 -52.9293,41.5341 -60.3294,57.6234 -19.98,43.44 -20.7111,48 -7.6977,48 5.2617,0 7.749,-3.1821 12.1311,-15.5202 z m -538.6728,1.2915 c -0.8988,-10.8369 -1.4025,-11.2959 -14.4312,-13.1505 -20.3835,-2.9013 -34.5048,-12.7962 -45.8583,-32.133 -17.7318,-30.2007 -17.9883,-31.1283 -16.6053,-60.0588 1.1556,-24.1668 2.5251,-29.4459 12.8442,-49.5051 6.3531,-12.3495 17.4384,-30.3219 24.6345,-39.9387 l 13.0836,-17.4852 -8.8191,-4.185 c -8.3523,-3.9639 -9.2247,-3.726 -16.4925,4.5 -11.6829,13.2225 -33.9375,60.4776 -37.9113,80.4999 -11.8578,59.7459 20.8473,125.2299 69.5427,139.2429 18.9837,5.4627 21.0447,4.6608 20.0127,-7.7865 z m 353.8188,5.2548 c 3.7125,-0.03 6.75,-1.2318 6.75,-2.7051 0,-5.6985 -9.3261,-5.7372 -27.537,-0.114 l -18.963,5.8545 16.5,-1.5042 c 9.075,-0.8274 19.5375,-1.5159 23.25,-1.5303 z m 106.5,0.8037 c -5.3625,-0.6654 -9.75,-2.4744 -9.75,-4.02 0,-1.5453 -3.7125,-2.7489 -8.25,-2.6745 l -8.25,0.135 9,4.1211 c 4.95,2.2665 13.05,4.0146 18,3.8844 l 9,-0.237 -9.75,-1.2099 z m 47.4471,-0.9354 c 3.1917,-1.7079 5.8029,-4.6038 5.8029,-6.435 0,-7.6392 21.9957,-48.2448 33.0561,-61.0245 6.5691,-7.5897 11.9439,-15.0207 11.9439,-16.5129 0,-5.3613 -19.794,-25.1298 -34.5,-34.4553 -16.7808,-10.6413 -36.7479,-16.4886 -56.0784,-16.4226 -36.1956,0.123 -42.1104,24.9663 -13.3824,56.2059 11.2542,12.2382 11.4387,12.7623 4.593,13.0539 -28.878,1.2309 -50.0625,-7.5843 -64.8822,-26.9979 -8.1942,-10.7343 -9.75,-15.3342 -9.75,-28.8264 l 0,-16.0539 -17.0931,-4.9692 c -20.5467,-5.973 -51.9069,-21.3789 -51.9069,-25.4997 0,-1.6263 -1.35,-2.9568 -3,-2.9568 -4.1595,0 -3.8619,70.1259 0.4074,95.9769 2.9928,18.1227 4.3614,20.9706 11.25,23.4093 12.0978,4.2834 23.6082,7.7217 97.8426,29.2275 37.95,10.9941 71.025,21.1626 73.5,22.5966 5.7453,3.3288 5.3688,3.3387 12.1971,-0.3159 z m -123.1971,-5.8944 c 0,-1.65 -1.35,-3 -3,-3 -1.65,0 -3,1.35 -3,3 0,1.65 1.35,3 3,3 1.65,0 3,-1.35 3,-3 z m 48,-3 c 0,-1.65 -3.375,-3 -7.5,-3 -4.125,0 -7.5,1.35 -7.5,3 0,1.65 3.375,3 7.5,3 4.125,0 7.5,-1.35 7.5,-3 z m -357.3876,-13.4277 c 7.8954,-7.3854 18.2628,-20.5479 23.0385,-29.25 7.7343,-14.0937 8.6919,-18.7719 8.766,-42.8223 0.087,-28.6755 -0.8544,-31.6872 -21.3111,-68.0955 -9.7257,-17.31 -18.8751,-41.0034 -25.1586,-65.1534 -9.4983,-36.5052 2.3922,-73.3761 28.0863,-87.0936 16.8273,-8.9838 50.3094,-8.6748 64.2459,0.5925 10.3458,6.8796 27.7206,36.1281 27.7206,46.6644 0,3.072 1.0125,6.6075 2.25,7.8567 1.2375,1.2492 2.25,5.1867 2.25,8.7501 0,5.4129 1.4769,6.318 8.9775,5.5011 4.9377,-0.5376 9.2562,-1.2561 9.597,-1.5966 0.9264,-0.9267 -5.223,-26.5323 -8.0277,-33.4257 -1.3428,-3.3 -4.1142,-10.4424 -6.1587,-15.8721 -5.7099,-15.1647 -19.5744,-32.6733 -32.8059,-41.4297 -21.3744,-14.1447 -70.6131,-20.6529 -91.1943,-12.0537 -23.4864,9.8133 -48.4275,50.6502 -47.8554,78.3555 0.288,13.9551 13.6887,57.7452 30.7548,100.5 22.3698,56.0424 25.6203,90.3327 10.9377,115.3869 -7.3785,12.5904 -8.1063,16.095 -6.3162,30.4215 1.1127,8.9055 3.3336,16.1916 4.9356,16.1916 1.602,0 9.3726,-6.0426 17.268,-13.4277 z m 212.7972,-84.0921 c -1.6062,-29.6889 -2.3334,-63.7677 -1.6158,-75.7302 0.7179,-11.9625 1.1703,-21.7026 1.0056,-21.6447 -0.165,0.057 -14.4744,2.4705 -31.7994,5.3616 l -31.5,5.2563 -3.5367,35.8884 c -1.9452,19.7385 -5.1306,43.3134 -7.0788,52.3884 -1.9479,9.075 -4.4862,21.9495 -5.6403,28.6098 -1.1544,6.6603 -2.9424,13.4748 -3.9735,15.1431 -1.0311,1.6686 -0.6345,4.9941 0.8814,7.3905 2.1543,3.4053 2.766,2.8902 2.802,-2.3592 0.054,-7.7658 4.5726,-13.8387 26.2359,-35.2536 13.7763,-13.6185 24.81,-31.4985 24.81,-40.2042 0,-6.4851 -15.8433,-21.3264 -22.7667,-21.3264 -8.9679,0 -9.366,-4.6476 -0.7908,-9.2367 8.5365,-4.5687 26.0232,0.588 35.2308,10.389 5.3016,5.6433 6.8466,10.8636 6.9603,23.5194 0.174,19.4754 -2.8563,25.6938 -22.8099,46.7916 l -15.2475,16.1217 7.8738,6.7728 c 9.9687,8.5746 14.55,17.1111 14.55,27.111 0,7.5882 0.5133,7.3581 14.6652,-6.5724 l 14.6655,-14.4357 -2.9211,-53.9805 z m -289.7289,77.8389 c 2.3031,-2.3028 -4.6797,-26.9061 -12.2943,-43.3191 -9.5307,-20.5428 -40.0473,-51 -51.0996,-51 -4.7988,0 -4.0464,23.7042 1.2447,39.2157 5.6343,16.5171 23.826,40.9275 37.2345,49.9635 9.5682,6.4482 21.2058,8.8491 24.9147,5.1399 z m 245.0406,-5.4834 c 7.1109,-8.5677 -8.2968,-27.1605 -17.6946,-21.3522 -5.4288,3.3552 -3.2124,16.0461 3.6408,20.8464 8.1747,5.7258 9.6768,5.7798 14.0538,0.5058 z m 63.6162,-29.6982 c -2.1792,-2.1792 -3.4767,-22.6488 -3.7383,-58.9875 -0.243,-33.8103 -1.2018,-49.8675 -2.4417,-40.9155 -4.6389,33.4932 2.0958,123.363 8.0376,107.253 0.8139,-2.2068 -0.03,-5.5143 -1.8576,-7.35 z m -250.1148,0.9924 c 2.0163,-3.2286 4.4211,-13.0161 5.3439,-21.75 1.833,-17.3466 -8.1231,-56.1123 -24.8814,-96.8799 l -8.6322,-21 -17.7765,-5.01 c -9.777,-2.7555 -19.9644,-5.118 -22.6386,-5.25 -5.3229,-0.264 -30.2925,35.274 -27.7149,39.4443 0.8601,1.3917 10.2255,8.0007 20.8125,14.6871 10.587,6.6861 23.9163,17.6094 29.6205,24.2736 12.0582,14.0874 33.0546,53.4579 36.0537,67.605 2.3802,11.2269 4.6614,12.129 9.813,3.8799 z m 143.8452,-20.3799 c -0.7545,-2.8875 -1.3719,-0.525 -1.3719,5.25 0,5.775 0.6174,8.1375 1.3719,5.25 0.7545,-2.8875 0.7545,-7.6125 0,-10.5 z m 233.2836,-9.4845 c -4.653,-9.2643 -7.6701,-20.8851 -8.1261,-31.3011 -0.6429,-14.6796 0.261,-17.5953 7.9329,-25.6056 l 8.6583,-9.0396 -7.1583,-1.4745 c -3.9369,-0.8112 -16.6083,-2.2764 -28.1583,-3.2559 -21.315,-1.8084 -62.1732,-12.7749 -63.9999,-17.1783 -0.5502,-1.3257 -3.5241,-2.4105 -6.609,-2.4105 -7.2111,0 -20.8911,-6.2088 -20.8911,-9.4815 0,-3.7488 0.7842,-3.5424 25.5,6.7197 3.3,1.3704 13.425,4.6905 22.5,7.3785 16.1427,4.7817 27.6852,6.6381 82.5,13.2693 27.8214,3.3657 59.9709,9.4761 81,15.3948 15.3153,4.3107 48.8178,23.8227 58.2729,33.9381 4.0002,4.2798 9.0627,7.7811 11.25,7.7811 15.8556,0 -17.688,-32.2539 -48.7089,-46.8366 -17.4714,-8.2131 -30.3582,-11.3055 -73.5,-17.6373 -28.7727,-4.2231 -58.389,-8.862 -65.814,-10.3092 -42.5013,-8.2827 -57.4629,-12.1149 -75.2355,-19.2708 -10.8543,-4.3704 -20.5767,-7.9461 -21.6054,-7.9461 -1.0284,0 -1.5975,6.3381 -1.2645,14.0844 0.6051,14.0796 0.6123,14.088 20.1054,24.6492 10.725,5.8104 30.3,14.1666 43.5,18.5691 26.2533,8.7561 24.4182,5.8647 20.7534,32.6973 -0.7887,5.775 0.294,13.788 2.4063,17.8065 4.5291,8.6172 27.9924,23.6205 37.4664,23.9577 l 6.6264,0.237 -7.401,-14.7345 z m -227.2344,-16.0155 c -0.7149,-3.7125 -1.2999,-0.675 -1.2999,6.75 0,7.425 0.585,10.4625 1.2999,6.75 0.7152,-3.7125 0.7152,-9.7875 0,-13.5 z m 373.08,12.6444 c 7.9707,-4.2657 7.3815,-6.7539 -4.4961,-18.9843 -11.4855,-11.8272 -41.6415,-27.0492 -63.7161,-32.163 -7.9668,-1.8453 -19.2099,-4.5069 -24.9849,-5.9142 -14.7756,-3.6006 -39.1518,-5.5056 -37.5633,-2.9352 0.7302,1.1814 -2.6694,5.1033 -7.5546,8.715 -4.8852,3.6117 -8.8821,8.5515 -8.8821,10.977 0,5.6559 4.2357,5.6508 8.934,0 5.751,-6.9291 23.2779,-8.7774 47.511,-5.01 30.438,4.7319 44.9337,11.8458 63.8973,31.3575 17.6328,18.1428 18.3534,18.5175 26.8548,13.9677 z m 76.3029,-28.2333 c 14.4813,-3.0381 37.9806,-5.0556 59.25,-5.0862 42.4086,-0.06 41.8095,1.0458 21.6801,-40.0605 -17.9478,-36.651 -20.2104,-38.6178 -37.527,-32.6214 -9.5853,3.3192 -24.9864,4.6209 -54.0669,4.569 -68.5845,-0.123 -111.2574,-14.6553 -162.2901,-55.272 -8.9562,-7.1283 -12.0426,-8.1354 -16.9245,-5.5227 -12.4971,6.6882 -77.8383,29.6853 -103.3716,36.3822 -6.1875,1.6227 -16.9623,4.4367 -23.9439,6.2529 l -12.6942,3.3027 8.1924,4.2924 c 12.9633,6.7923 101.8908,24.9429 122.7168,25.0473 6.0618,0.03 17.5368,1.3767 25.5,2.9916 7.9635,1.6149 24.8505,5.0619 37.527,7.6596 30.3918,6.2283 53.9364,18.2238 75.9519,38.6958 20.0937,18.6849 17.5176,18.2826 60,9.3693 z m -443.5131,-8.4111 c -0.8322,-2.0625 -1.5132,-0.375 -1.5132,3.75 0,4.125 0.681,5.8125 1.5132,3.75 0.8322,-2.0625 0.8322,-5.4375 0,-7.5 z m 0.093,-19.443 c -0.7608,-2.9187 -1.4331,-1.257 -1.4943,3.693 -0.06,4.95 0.5613,7.3383 1.383,5.307 0.822,-2.031 0.8718,-6.081 0.111,-9 z m -326.079,-10.7841 c 0,-3.8373 -3.4413,-10.2099 -7.6473,-14.1612 -28.0791,-26.379 -42.0174,-71.7411 -34.4181,-112.0146 3.5652,-18.8961 2.1633,-29.145 -3.2469,-23.7348 -2.76,2.76 -7.6491,23.4282 -10.6914,45.1986 -4.0482,28.9674 14.0031,79.2225 35.8467,99.7977 14.3871,13.5516 20.157,14.9583 20.157,4.9143 z m 332.9541,-19.2729 c -0.033,-8.3682 -0.7908,-10.0971 -2.9541,-6.75 -3.8211,5.9127 -3.8211,18 0,18 1.65,0 2.9793,-5.0625 2.9541,-11.25 z m -323.8431,0.6162 c 3.2436,-3.9081 2.1825,-6.3738 -6.7779,-15.75 -19.3197,-20.2155 -26.613,-39.0018 -27.8232,-71.6667 -0.8937,-24.132 -2.4954,-30.9495 -7.2702,-30.9495 -3.8478,0 -5.9424,34.8783 -3.2421,53.9826 3.4452,24.3753 17.889,52.8978 33.0024,65.172 5.9397,4.824 7.5396,4.7196 12.111,-0.7884 z m 289.968,-6.5592 c -0.7605,-2.9187 -1.4331,-1.257 -1.494,3.693 -0.063,4.95 0.561,7.3383 1.3827,5.307 0.822,-2.031 0.8718,-6.081 0.111,-9 z m 117.6219,-4.557 c -0.243,-10.389 -0.6981,-11.3613 -2.4537,-5.25 -2.0034,6.9735 -1.0215,18 1.6026,18 0.6327,0 1.0155,-5.7375 0.8511,-12.75 z m -395.3724,-12 c 1.9467,-3.7125 7.3944,-11.6694 12.1056,-17.6817 4.7112,-6.0123 8.5659,-12.237 8.5659,-13.8324 0,-1.5951 -8.4375,-8.3661 -18.75,-15.0462 -10.3125,-6.6804 -22.0227,-15.6435 -26.0229,-19.9179 -11.1216,-11.8842 -13.2996,-9.855 -11.1807,10.4169 1.8993,18.1728 10.1352,39.0819 21.4536,54.4671 7.35,9.9909 9.3072,10.2165 13.8285,1.5942 z m 296.6715,-3.5907 c 48.5181,-2.1912 76.0545,-6.7113 139.5,-22.8993 59.8293,-15.2652 118.5,-36.882 118.5,-43.6602 0,-6.9336 -6.4449,-7.8078 -19.0107,-2.5788 -40.4679,16.8402 -57.8061,22.2258 -130.9893,40.6899 -70.8597,17.8779 -135.306,24.2835 -198.9897,19.7787 -19.5192,-1.3806 -36.3042,-1.6956 -37.2999,-0.6999 -4.8411,4.8408 7.0065,7.662 39.8283,9.4833 19.7787,1.0977 36.4581,2.4324 37.0656,2.9655 0.6072,0.5334 4.6572,0.4095 9,-0.276 4.3425,-0.6849 23.4207,-1.9464 42.3957,-2.8035 z m 492.75,-7.7046 c 9.5853,-4.5519 9.9843,-6.5187 3.3705,-16.6128 -3.8169,-5.8254 -5.7747,-6.7038 -8.9913,-4.0341 -6.3696,5.2863 -67.3152,7.1403 -92.118,2.8023 -52.7541,-9.2265 -82.3674,-25.4436 -110.6409,-60.5901 -5.7606,-7.161 -12.693,-17.5998 -15.4056,-23.1975 -8.0745,-16.6644 -14.8737,-59.5401 -12.6579,-79.8225 2.1597,-19.7703 8.1825,-44.9892 11.5479,-48.3546 1.1799,-1.1799 2.1753,-4.2828 2.2119,-6.8955 0.036,-2.6124 2.5965,-8.0409 5.688,-12.0636 5.5491,-7.2195 5.5326,-7.3836 -1.2897,-12.75 -3.8013,-2.9898 -7.6116,-5.4363 -8.4675,-5.4363 -0.8559,0 -5.1477,7.7625 -9.5376,17.25 -4.3896,9.4875 -9.1425,19.4799 -10.5621,22.2057 -6.6777,12.8217 -11.9151,43.5069 -12.0315,70.4892 -0.105,24.0537 1.2186,33.1848 7.1043,49.0551 6.9702,18.7959 29.9514,56.9394 34.3764,57.0576 1.1841,0.033 7.5531,4.9056 14.1531,10.8312 19.4631,17.4741 62.0385,35.1183 106.5,44.136 14.8437,3.0108 88.3518,-0.081 96.75,-4.0701 z m -677.25,-8.8968 c 0,-2.3172 -8.3103,-6.2187 -20.1624,-9.4653 -24.4158,-6.6885 -60.6582,-23.1144 -79.7775,-36.1572 -40.1658,-27.4002 -69.3366,-65.7699 -69.5148,-91.4367 -0.078,-11.1078 10.8144,-32.5059 20.8392,-40.9413 7.8165,-6.5772 12.567,-8.0574 25.8564,-8.0574 9.8547,0 20.1249,2.0847 26.0199,5.2815 13.3359,7.2321 29.2392,19.3332 29.2392,22.2483 0,1.3209 2.2521,5.0319 5.0049,8.247 12.5733,14.6844 27.9951,62.952 27.9951,87.6195 0,10.7763 1.0743,14.7312 3.75,13.8033 11.6334,-4.0335 -3.8736,-74.1243 -22.9506,-103.7349 -10.7637,-16.707 -29.598,-33.4647 -37.6119,-33.4647 -2.7432,0 -6.5706,-1.5831 -8.5059,-3.5184 -1.9611,-1.9611 -12.7164,-3.6207 -24.3018,-3.75 -18.8778,-0.21 -21.8253,0.6099 -32.1378,8.9421 -24.0324,19.4175 -29.8635,37.3083 -20.9961,64.4193 9.3045,28.446 44.3946,68.0946 76.7541,86.7249 27.5883,15.8832 55.2924,27.8814 80.0007,34.6464 16.4424,4.5021 20.4993,4.2237 20.4993,-1.4064 z m 205.5,-0.5253 c 4.125,-0.033 8.85,-1.1289 10.5,-2.4327 1.65,-1.3038 10.9215,-3.2046 20.6031,-4.2243 49.4859,-5.2113 187.9311,-46.7955 195.2565,-58.6485 4.5465,-7.356 -8.9967,-6.4122 -32.211,2.2449 -82.2939,30.6891 -131.8221,42.4209 -209.1486,49.5417 -44.9823,4.1421 -66.6036,3.9054 -112.1412,-1.2282 -14.6526,-1.6518 -27.3021,-2.3421 -28.1103,-1.5342 -0.8079,0.8082 -0.6231,4.8402 0.411,8.9598 1.6791,6.69 3.7215,7.6272 19.1103,8.7687 9.4767,0.7032 42.2052,0.6792 72.7302,-0.054 30.525,-0.7323 58.875,-1.3596 63,-1.3938 z m 458.25,-14.319 c 8.2647,-0.261 8.7267,-6.4947 0.9996,-13.4877 -4.7892,-4.3341 -6.8895,-4.5945 -12.5643,-1.5576 -12.7296,6.8127 -68.6838,0.078 -100.1853,-12.0603 -48.7002,-18.7641 -77.6979,-47.8515 -88.3347,-88.608 -6.4995,-24.9036 -2.1828,-51.4374 13.5387,-83.2221 8.3721,-16.9257 8.4177,-17.2986 2.6574,-21.6546 -9.222,-6.9738 -11.8992,-5.5971 -18.7236,9.6267 -33.6099,74.9766 -6.6669,160.05 60.912,192.3306 24.1365,11.5293 45.9048,17.8149 68.6955,19.8363 9.7599,0.8655 18.1266,1.9551 18.5928,2.4213 0.4662,0.4662 11.3808,-0.111 24.2547,-1.2819 12.8739,-1.1712 26.4447,-2.2254 30.1572,-2.3427 z m -668.8008,-5.1609 c -0.522,-4.3713 -2.9742,-8.8863 -5.4492,-10.0338 -2.475,-1.1475 -7.5192,-3.6462 -11.2092,-5.5527 -3.6903,-1.9065 -8.2464,-3.4662 -10.125,-3.4662 -6.4473,0 -40.1775,-16.1271 -59.6658,-28.5276 -50.9997,-32.4513 -70.6557,-69.8616 -48.9897,-93.2394 6.4413,-6.9504 9.1593,-7.788 21.4452,-6.6075 26.76,2.5713 44.505,21.0273 57.9594,60.2817 3.5049,10.2261 6.5487,24.9534 6.7638,32.7276 0.4116,14.8773 4.8582,22.5507 10.9026,18.8148 3.5673,-2.2044 3.3993,-4.7385 -2.4825,-37.4496 -7.3251,-40.7376 -38.3601,-81.6471 -64.9662,-85.6368 -24.5373,-3.6798 -36.6357,2.6946 -48.0927,25.3392 -10.3047,20.367 1.1817,47.7018 32.6754,77.7594 8.9544,8.5461 17.5347,15.5382 19.0677,15.5382 1.533,0 5.118,2.5755 7.9668,5.7234 6.4866,7.1679 44.9691,26.2647 70.7502,35.1096 24.9762,8.5689 24.5676,8.5827 23.4492,-0.7803 z m 157.5447,-14.0394 c -0.3579,-10.2492 -2.8617,-17.8857 -8.5593,-26.1075 -11.2866,-16.287 -20.5998,-21.4494 -41.7582,-23.1477 -14.7243,-1.182 -20.637,-0.255 -29.8437,4.6797 -15.1785,8.1351 -18.8241,13.9452 -21.3288,33.9921 -2.0727,16.5894 -2.0028,16.7958 6.4503,19.0275 11.2836,2.9793 51.6255,6.2286 76.0458,6.1251 l 19.5,-0.081 -0.5061,-14.4867 z m 44.2107,-12.0087 c -1.7625,-1.7625 -3.2046,-6.3546 -3.2046,-10.2042 0,-11.0799 -14.577,-37.257 -27.5922,-49.5504 -15.7923,-14.916 -20.2965,-14.5434 -5.0349,0.4167 13.4523,13.1865 32.6271,54.6606 32.6271,70.5708 0,13.9713 4.3176,16.4658 5.4546,3.1515 0.525,-6.1488 -0.4875,-12.6219 -2.25,-14.3844 z m 43.4208,20.1861 c 23.4762,-2.6379 25.5756,-4.5831 23.4495,-21.7278 -3.471,-27.9903 -22.6455,-83.862 -33.186,-96.699 -8.7243,-10.6251 -3.2301,-20.7639 11.2515,-20.7639 15.3678,0 67.5561,-24.828 64.0644,-30.4779 -0.8157,-1.3194 -3.783,-1.2345 -6.594,0.189 -19.3155,9.7827 -24.0684,10.6731 -56.9763,10.6731 -24.7827,0 -35.0241,-1.053 -35.9037,-3.6921 -1.6851,-5.0547 -8.2089,-4.641 -12.7308,0.8076 -2.0541,2.475 -7.9569,4.3434 -13.1172,4.152 -5.1606,-0.192 -7.0203,-0.9654 -4.1328,-1.7199 7.623,-1.9923 6.438,-6.9321 -1.6626,-6.9321 -8.5209,0 -32.5056,-14.8746 -39.4038,-24.4371 l -5.0952,-7.0629 0.9558,7.4529 c 0.5769,4.4982 4.7751,9.8499 10.5903,13.5 9.8673,6.1935 12.5274,10.5471 6.4437,10.5471 -1.8816,0 -10.0575,-7.0314 -18.1683,-15.6252 -16.824,-17.8263 -17.2551,-24.5799 -2.523,-39.5238 11.0871,-11.2464 18.8025,-9.3723 37.215,9.0405 7.7019,7.7016 14.8266,13.1802 15.8325,12.174 1.0062,-1.0059 -5.709,-9.3072 -14.9223,-18.4473 -11.5026,-11.4108 -19.1424,-16.6182 -24.3819,-16.6182 -4.1967,0 -7.6302,1.3077 -7.6302,2.9058 0,1.5984 -1.7391,2.2386 -3.8649,1.4229 -6.6846,-2.5653 -20.1039,14.6532 -22.5291,28.9071 -2.0859,12.2616 -3.0447,13.3845 -12.6813,14.856 l -10.4247,1.5918 8.6838,2.3241 c 6.6495,1.7799 7.8585,3.15 5.1606,5.8479 -5.5275,5.5275 -82.1997,6.4794 -101.5944,1.2609 -8.6625,-2.3307 -15.75,-3.2946 -15.75,-2.142 0,4.2423 13.0956,13.7655 31.0536,22.5819 13.3407,6.5496 18.4464,10.7013 18.4464,15 0,7.8795 -15.6936,9.5661 -28.3089,3.0423 -10.0317,-5.1876 -12.2994,-2.2608 -3.9411,5.0865 8.1486,7.1634 35.5815,13.7826 65.25,15.7443 64.8306,4.2867 86.2113,11.0313 108.1455,34.1136 15.3486,16.1523 26.6043,38.3823 31.3698,61.9569 5.3643,26.5353 5.2575,26.3331 12.888,24.4179 3.7662,-0.9453 14.8911,-2.6226 24.7221,-3.7272 z m -58.6341,-132.2976 c 0,-1.3161 -4.6821,-2.4924 -10.3938,-2.6136 -24.0411,-0.5109 -59.7534,-28.122 -54.4041,-42.0624 1.4688,-3.8277 3.9735,-2.8299 13.6191,5.4264 12.8589,11.0067 38.5674,21.195 69.1875,27.4191 26.3895,5.364 26.7681,12.0912 0.75,13.3305 -10.3125,0.4914 -18.7539,-0.183 -18.7587,-1.5 z m -26.9913,-30.8931 c 0,-1.65 2.025,-3 4.5,-3 2.475,0 4.5,1.35 4.5,3 0,1.65 -2.025,3 -4.5,3 -2.475,0 -4.5,-1.35 -4.5,-3 z m 602.3967,137.2068 c 10.545,-21.4935 18.9717,-54.7836 18.3579,-72.5229 -1.1565,-33.4191 -12.1017,-72.4749 -27.1203,-96.7758 -5.3655,-8.6814 -6.6798,-9.3033 -13.2942,-6.2895 -9.5727,4.3617 -9.2949,7.6956 2.7825,33.3657 12.8733,27.3621 18.2412,53.7027 15.948,78.2586 -2.0412,21.8601 -11.2719,50.4084 -20.2359,62.586 l -6.1311,8.3289 6.441,9.0453 c 8.0067,11.2443 10.8456,9.291 23.2521,-15.9963 z m -13.0833,-40.2648 c 9.4743,-38.9871 0.03,-89.1384 -22.2327,-117.942 -5.541,-7.1721 -6.0276,-7.2684 -11.1288,-2.2014 -4.5957,4.5645 -4.7817,6.1836 -1.3434,11.6892 2.1951,3.5151 7.3548,15.3057 11.4663,26.2017 11.3031,29.9559 9.3618,74.4966 -4.1289,94.728 -5.6754,8.5113 -4.8783,15.48 2.5632,22.413 l 6.5091,6.0639 6.5283,-9.6972 c 3.5904,-5.3334 8.8857,-19.3983 11.7669,-31.2552 z m -465.6735,29.058 c -0.7266,-4.95 -1.8426,-9 -2.4804,-9 -0.6378,0 -1.1595,4.05 -1.1595,9 0,4.95 1.1163,9 2.4804,9 1.3641,0 1.8861,-4.05 1.1595,-9 z m -342.0612,-24.7695 c -7.6347,-41.4348 -28.8516,-68.2305 -54.0252,-68.2305 -11.1501,0 -24.5535,10.443 -24.5535,19.1304 0,9.8328 15.2766,32.2455 30.3474,44.523 17.922,14.6004 45.4935,29.2965 48.9339,26.0823 1.704,-1.5918 1.4319,-9.9204 -0.7026,-21.5052 z m 338.4213,3.7695 c 0,-3.3 -1.35,-6 -3,-6 -1.65,0 -3,2.7 -3,6 0,3.3 1.35,6 3,6 1.65,0 3,-2.7 3,-6 z m 439.5915,-6.75 c 10.5753,-25.7175 9.3468,-61.4022 -3.1245,-90.75 -2.1036,-4.95 -4.6017,-11.3625 -5.5518,-14.25 -0.9498,-2.8875 -3.828,-5.25 -6.396,-5.25 -3.8535,0 -61.5192,40.8498 -61.5192,43.5795 0,0.4668 12.2427,14.8149 27.2058,31.8846 14.9631,17.0697 29.4291,34.7484 32.1468,39.2859 6.8604,11.4546 11.1372,10.338 17.2389,-4.5 z m -446.5422,-8.8125 c -0.9576,-2.3931 -1.6686,-1.6824 -1.8123,1.8126 -0.129,3.1623 0.5787,4.9344 1.5756,3.9375 0.9969,-0.9969 1.1034,-3.5844 0.237,-5.7501 z m -6,-15 c -0.9576,-2.3931 -1.6686,-1.6824 -1.8123,1.8126 -0.129,3.1623 0.5787,4.9344 1.5756,3.9375 0.9969,-0.9969 1.1034,-3.5844 0.237,-5.7501 z m 241.8654,-11.88 c 30.2043,-20.2212 47.0853,-33.5613 47.0853,-37.2087 0,-3.8178 -55.2729,-58.3488 -59.1426,-58.3488 -3.609,0 -16.5048,33.9978 -18.912,49.8588 -1.1403,7.5147 -0.9189,19.9578 0.492,27.6519 2.6181,14.2779 8.2497,30.4893 10.5912,30.4893 0.7152,0 9.6639,-5.5992 19.8861,-12.4425 z m -247.8654,-0.12 c -0.9576,-2.3931 -1.6686,-1.6824 -1.8123,1.8126 -0.129,3.1623 0.5787,4.9344 1.5756,3.9375 0.9969,-0.9969 1.1034,-3.5844 0.237,-5.7501 z m -8.0493,-20.4375 c 0,-1.65 -1.35,-3 -3,-3 -1.65,0 -3,1.35 -3,3 0,1.65 1.35,3 3,3 1.65,0 3,-1.35 3,-3 z m 11.1876,-4.8126 c -0.9969,-0.9969 -3.5844,-1.1034 -5.7501,-0.237 -2.3931,0.9576 -1.6824,1.6686 1.8126,1.8126 3.1623,0.129 4.9344,-0.579 3.9375,-1.5759 z m 26.3055,-12.6945 c -2.1456,-2.1453 -10.4931,2.181 -10.4931,5.4384 0,1.9743 2.1525,1.7754 5.8635,-0.5424 3.225,-2.0139 5.3082,-4.2171 4.6296,-4.896 z m -268.4931,-3.1431 c 0,-1.4574 -3.0375,-3.4641 -6.75,-4.4589 -10.5078,-2.8161 -12.2856,-2.2536 -8.25,2.6091 4.0245,4.8492 15,6.2028 15,1.8498 z m 290.2056,-7.5057 c 21.6393,-17.7219 53.0391,-58.4358 41.7165,-54.0909 -2.4051,0.9228 -6.0003,5.6073 -7.9896,10.4097 -4.1145,9.9333 -24.9075,31.6419 -40.4376,42.2178 -5.7495,3.9156 -10.4631,8.1792 -10.4745,9.4749 -0.03,2.4714 10.2084,-2.2977 17.1852,-8.0115 z m -323.1162,-13.677 c -1.7169,-3.2082 -4.4643,-6.6627 -6.1056,-7.677 -1.641,-1.0143 -2.9838,-6.3321 -2.9838,-11.8173 0,-8.3358 -1.2696,-10.2159 -7.7319,-11.4513 -7.0638,-1.3503 -7.563,-0.7974 -5.7777,6.4002 1.0749,4.3332 4.3287,10.5783 7.2309,13.8783 2.9022,3.3 7.1895,8.3112 9.5277,11.136 5.8029,7.0107 9.6768,6.6996 5.8404,-0.4689 z m 230.9106,-6.1671 c 0,-1.65 -1.3515,-3 -3.0033,-3 -1.6518,0 -8.4018,-5.5629 -15,-12.3618 -7.4691,-7.6962 -11.9967,-10.6149 -11.9967,-7.7337 0,2.5455 5.643,9.4581 12.54,15.3618 12.8313,10.983 17.46,13.0332 17.46,7.7337 z m -24.3687,-5.25 c -16.1619,-20.6772 -38.2278,-43.8162 -43.8552,-45.9873 -7.1964,-2.7765 -15.7761,-0.8415 -15.7761,3.5583 0,1.4733 3.2646,2.679 7.2546,2.679 12.0843,0 15.837,2.7216 33.4725,24.2775 9.3243,11.3973 18.3159,20.7225 19.9806,20.7225 1.6647,0 1.1805,-2.3625 -1.0764,-5.25 z m 416.5461,-3.0084 c 20.6724,-13.0614 48.8226,-35.1495 48.8226,-38.3088 0,-1.9134 -9.4137,-7.2687 -20.9196,-11.9004 -17.3448,-6.9825 -25.6752,-8.4738 -48.75,-8.727 -16.1298,-0.177 -32.5023,1.35 -38.9424,3.6318 l -11.1117,3.9369 29.1117,28.2057 c 16.0116,15.513 30.0918,28.254 31.2894,28.3128 1.1976,0.06 5.9226,-2.259 10.5,-5.151 z m -560.9274,-2.8905 c -4.5375,-0.6873 -11.9625,-0.6873 -16.5,0 -4.5375,0.6876 -0.825,1.2498 8.25,1.2498 9.075,0 12.7875,-0.5622 8.25,-1.2498 z m -51.0624,-5.6637 c -0.9969,-0.9969 -3.5844,-1.1034 -5.7501,-0.237 -2.3931,0.9576 -1.6824,1.6686 1.8126,1.8126 3.1623,0.129 4.9344,-0.579 3.9375,-1.5759 z m 161.0331,-3.7353 c 1.9323,-3.1266 -12.4473,-11.2254 -15.1437,-8.529 -2.6286,2.6286 4.7034,11.0769 9.6132,11.0769 2.1756,0 4.6644,-1.1466 5.5305,-2.5479 z m 177.708,-1.9521 c 4.884,-4.8843 4.1574,-5.496 -3.1833,-2.679 -2.61,1.0014 -4.7454,3.0264 -4.7454,4.5 0,3.9288 2.8284,3.279 7.9287,-1.821 z m 340.1316,-36.0726 c 2.0871,-2.5149 3.2649,-5.0361 2.6172,-5.6031 -5.4507,-4.7709 -40.5444,-20.4372 -54.1392,-24.1689 -23.7849,-6.5283 -65.745,-5.9415 -86.4606,1.209 -18.564,6.408 -21.0873,9.6873 -12.228,15.8925 5.4201,3.7965 8.0604,3.6612 21.9066,-1.122 30.8781,-10.6674 67.4901,-6.6582 107.2437,11.7438 16.5801,7.6749 16.4052,7.6578 21.0603,2.0487 z m 17.3739,-13.5444 c 3.6111,-3.3642 6.5658,-7.2012 6.5658,-8.5269 0,-4.0464 -45.2478,-23.6406 -66.729,-28.8966 -30.3819,-7.434 -87.4476,-5.2899 -112.521,4.2273 -19.1523,7.2699 -23.1294,12.7584 -13.125,18.1125 4.1397,2.2155 10.278,1.3047 23.25,-3.4494 19.5051,-7.149 80.1093,-11.0382 83.6148,-5.3664 1.0254,1.659 5.4972,3.03 9.9372,3.0465 4.4403,0.03 19.548,5.871 33.573,13.0101 14.025,7.1394 26.2581,13.2009 27.1842,13.4703 0.9264,0.27 4.6389,-2.2629 8.25,-5.6274 z m -405.9342,671.9733 c -8.25,-3.207 -21.75,-11.8533 -30,-19.2138 -18.9924,-16.9446 -28.1136,-19.2249 -42.1653,-10.5402 -11.793,7.2885 -14.8869,6.5139 -11.8758,-2.973 5.3196,-16.7604 26.2035,-27.6252 44.3469,-23.0715 3.9222,0.9843 16.4832,10.0818 27.9129,20.2167 28.6686,25.4205 30.3765,26.0025 48.9435,16.677 l 15.3378,-7.704 0,6.8535 c 0,8.3826 -10.0416,17.9094 -23.6976,22.4835 -12.4446,4.1682 -10.6167,4.3413 -28.8024,-2.7282 z m 39.6876,-7.6689 c -0.9969,-0.9969 -3.5844,-1.1034 -5.7501,-0.237 -2.3931,0.9576 -1.6824,1.6686 1.8126,1.8126 3.1623,0.129 4.9344,-0.5787 3.9375,-1.5756 z m -56.313,-17.928 c -14.7216,-15.1245 -26.2296,-22.2594 -35.9028,-22.2594 -8.6526,0 -5.0085,4.8351 5.2158,6.9204 4.5717,0.9324 14.331,7.8567 21.687,15.3876 7.356,7.5306 15.3996,13.692 17.8746,13.692 2.7084,0 -0.8253,-5.4711 -8.8746,-13.7406 z m -206.8287,0.9906 c 0.03,-7.6476 1.0161,-11.2215 2.4702,-8.9301 2.2815,3.5949 1.1499,21.6801 -1.3566,21.6801 -0.6378,0 -1.1388,-5.7375 -1.1136,-12.75 z m 4.5891,-24 c 3.2562,-10.7778 6.4773,-12.2823 5.0187,-2.3442 -0.7341,5.0019 -2.6223,9.0942 -4.1964,9.0942 -1.5738,0 -1.944,-3.0375 -0.8223,-6.75 z m 928.164,-176.3973 c -18.8643,-18.894 -39.024,-40.1769 -44.799,-47.2953 -10.2459,-12.6291 -10.7424,-12.8559 -20.511,-9.3654 -15.3726,5.4927 -47.6736,2.0487 -67.1343,-7.1577 -17.8125,-8.4267 -33.6072,-24.1191 -40.23,-39.9696 -4.8015,-11.4918 -5.4777,-32.8743 -1.1247,-35.5647 1.65,-1.0197 3,-4.5282 3,-7.7967 0,-3.2682 2.7687,-11.3694 6.1527,-18.0027 l 6.153,-12.0606 -8.9565,-10.2006 c -45.7035,-52.0533 -47.1678,-131.1594 -3.2409,-175.086 8.8692,-8.8695 9.0081,-9.426 4.5213,-18.1032 -5.4486,-10.5357 -6.0381,-35.3529 -1.2222,-51.4275 4.2429,-14.1606 23.9139,-33.3435 40.9032,-39.888 61.2159,-23.5806 117.3285,31.2282 117.954,115.2135 0.171,23.1309 -3.7797,53.4039 -7.8264,59.9517 -0.8961,1.4499 0.5598,7.758 3.2349,14.0181 25.0128,58.5306 27.6873,123.3969 6.9102,167.5983 l -6.3402,13.488 16.1286,17.1627 c 8.8704,9.4395 22.2033,22.176 29.6283,28.3032 26.2818,21.6882 33.5901,29.4648 31.8798,33.9216 -0.9303,2.4246 -2.9562,4.4082 -4.5018,4.4082 -8.2869,0 -74.8413,-65.544 -104.6841,-103.095 -23.3298,-29.3556 -42.7806,-49.905 -47.2371,-49.905 -2.0472,0 -5.304,1.9062 -7.2375,4.2357 -2.8458,3.429 0.9837,8.7153 20.1012,27.75 12.9891,12.933 33.2817,36.555 45.0948,52.4934 11.8128,15.9387 35.8617,43.2762 53.442,60.75 17.58,17.4741 30.9474,31.7709 29.7051,31.7709 -5.0037,0 -31.9359,-22.1346 -48.576,-39.9228 -9.7257,-10.3971 -27.3894,-31.8171 -39.2523,-47.6004 -25.3437,-33.7191 -62.4558,-71.4768 -70.2546,-71.4768 -3.0138,0 -5.4795,0.7197 -5.4795,1.599 0,0.8796 11.1375,14.8632 24.75,31.0746 13.6125,16.2117 30.1113,37.4295 36.6642,47.151 16.569,24.5811 34.7778,45.8103 64.1367,74.7759 13.8303,13.6446 24.5613,26.5629 23.8467,28.7067 -0.7701,2.31 -15.2742,-10.0983 -35.5986,-30.4545 z m -70.5342,-66.2913 c 11.6505,-5.3085 6.3528,-8.2947 -11.454,-6.4569 -25.5798,2.64 -44.436,-3.357 -58.488,-18.6018 -16.5714,-17.9778 -18.57,-30.5652 -8.1276,-51.1884 4.4118,-8.7129 14.0979,-22.3605 21.525,-30.3279 14.3331,-15.3765 38.6418,-48.8691 54.951,-75.7119 8.2785,-13.6251 9.3456,-17.3514 6.6579,-23.25 -1.7601,-3.8634 -4.242,-6.9933 -5.5149,-6.9552 -1.2726,0.039 -7.7142,9.6921 -14.3142,21.4527 -6.6,11.7606 -26.5617,38.3919 -44.3595,59.1807 -17.7975,20.7885 -33.0786,41.1723 -33.9576,45.2973 -0.879,4.125 -2.8548,10.6011 -4.3905,14.3913 -8.9049,21.9759 7.1244,51.6606 35.2464,65.2719 18.5766,8.9916 49.9887,12.4737 62.226,6.8982 z m -0.4716,-13.3548 c 0.9864,-0.9861 1.0848,-3.6396 0.219,-5.8965 -1.0791,-2.8128 -6.4404,-3.9816 -17.0433,-3.7164 -9.1221,0.228 -19.3029,-1.6065 -24.8142,-4.4712 -10.3923,-5.4024 -19.1613,-21.0126 -19.1415,-34.0758 0.03,-9.1026 10.6602,-27.0543 26.1219,-44.0457 23.8077,-26.1627 51.8652,-68.3664 51.8652,-78.0147 0,-10.0239 -7.746,-4.3779 -17.5938,12.8238 -10.2957,17.9847 -23.5815,35.6298 -45.7839,60.8064 -26.9376,30.546 -34.3494,47.4312 -29.2272,66.5835 2.8644,10.7103 16.8951,25.8 23.9892,25.8 2.8938,0 6.096,1.35 7.1157,3 1.9665,3.1818 41.2479,4.2522 44.2932,1.2066 z m -12.5616,-21.4566 c -6.093,-10.7364 -32.4468,-37.4469 -34.1799,-34.6428 -0.9885,1.5996 -2.1222,7.7316 -2.5194,13.6266 -1.1184,16.6068 9.2577,25.6794 29.8233,26.076 8.5434,0.165 9.4587,-0.5088 6.876,-5.0598 z m 71.5092,-25.6452 c 10.8726,-25.3647 13.2501,-54.0174 7.7667,-93.6048 -8.7576,-63.2295 -29.6154,-96.3951 -83.3103,-132.471 -24.0579,-16.1637 -35.9895,-33.7776 -36.417,-53.7594 -0.3801,-17.7705 7.8606,-26.0769 26.2674,-26.4771 26.1252,-0.5676 41.0775,23.844 43.3362,70.7526 1.2282,25.5045 2.2521,30.1194 7.2795,32.8101 3.2178,1.722 6.7473,2.2341 7.8438,1.1379 4.4766,-4.4769 1.7232,-54.2523 -3.9828,-71.9931 -6.405,-19.9137 -29.3919,-46.5 -40.2045,-46.5 -3.2811,0 -6.8001,-1.35 -7.8198,-3 -2.9562,-4.7832 -11.9766,-3.5106 -25.2189,3.558 -23.0478,12.3021 -31.4226,47.1753 -16.7184,69.6168 3.0642,4.6764 17.3244,17.1291 31.6893,27.6726 49.9935,36.6945 69.9498,64.9467 83.7615,118.5828 7.167,27.8313 3.3348,90.4215 -6.1143,99.8706 -1.5945,1.5945 -2.8992,6.0042 -2.8992,9.7992 0,11.5305 8.7546,7.9701 14.7408,-5.9952 z m -12.1338,-20.6832 c 1.8663,-7.7433 3.3696,-25.2933 3.3408,-39 -0.135,-65.409 -25.0599,-114.9453 -75.6255,-150.3096 -11.0979,-7.7616 -21.4479,-14.112 -23.0001,-14.112 -1.5522,0 -3.3111,-1.4673 -3.909,-3.2604 -1.7652,-5.2959 -22.8498,0.174 -32.7354,8.4918 -14.031,11.8065 -26.5404,40.8657 -26.1594,60.7686 0.4806,25.1211 12.5433,56.6118 30.2487,78.9681 7.8903,9.9627 9.6477,10.9029 13.3872,7.1631 3.7398,-3.7395 2.4951,-7.0032 -9.4827,-24.8628 -7.5831,-11.307 -15.2439,-25.9665 -17.0241,-32.577 -4.4727,-16.6113 -2.0448,-51.8301 4.5021,-65.2992 10.3572,-21.3084 38.1915,-21.6687 63.63,-0.8235 13.4931,11.0565 41.8209,46.9401 48.4965,61.4313 16.1145,34.9815 21.2184,72.4197 14.3586,105.3204 -4.7286,22.6779 -3.5778,33.1221 2.8824,26.1621 2.0334,-2.1903 5.2239,-10.3179 7.0899,-18.0609 z m -15.8043,-29.6154 c 1.7874,-29.5005 -1.2102,-52.3062 -6.8751,-52.3062 -3.1233,0 -36.9276,44.6757 -36.9276,48.8034 0,3.9645 37.5876,36.0534 39.7938,33.9723 1.2618,-1.1898 3.0657,-14.901 4.0089,-30.4695 z M 3917.369,2370.466 c 0,-1.8249 -3.8703,-8.2374 -8.6007,-14.25 -26.0397,-33.0969 -33.8529,-72.3729 -22.3209,-112.2051 5.9646,-20.6025 24.1065,-42.4017 38.2398,-45.9492 9.0888,-2.2809 9.3318,-3.5907 2.4774,-13.3599 -3.8469,-5.4828 -5.2062,-13.4547 -5.2107,-30.5634 0,-22.8363 0.15,-23.3052 11.6253,-35.0574 14.661,-15.0141 28.3503,-17.9178 50.2239,-10.6524 20.3994,6.7755 38.319,24.8529 45.5412,45.9423 4.3836,12.7992 5.3085,23.4075 4.638,53.1888 -0.8082,35.9187 1.3779,46.6743 8.5818,42.222 5.739,-3.5469 6.9153,-81.2934 1.4109,-93.2337 -1.5882,-3.4449 -5.3526,-12.1635 -8.3652,-19.3746 -22.3314,-53.4519 -91.0062,-63.8187 -122.2281,-18.4509 -8.0949,11.7627 -9.2481,15.9687 -9.2481,33.7323 0,11.8395 1.5072,21.8013 3.6177,23.9118 6.1773,6.1773 4.0095,15.9201 -5.5866,25.1064 -13.5432,12.9648 -25.7907,36.2949 -30.1083,57.3522 -6.5745,32.0658 3.8022,69.504 28.3035,102.1164 9.1098,12.1257 17.0091,16.5489 17.0091,9.5244 z m 41.3988,-45.5748 c 8.7441,-12.0195 19.449,-29.0277 23.7882,-37.7958 l 7.8897,-15.9423 -17.7885,-17.1915 c -22.3419,-21.5928 -34.4616,-26.3805 -47.5011,-18.765 -5.7963,3.3852 -9.9987,8.7432 -11.1819,14.2557 -3.309,15.42 -2.4819,41.4399 1.6896,53.1303 4.323,12.1161 22.9137,44.2146 25.5891,44.1822 0.8889,0 8.7705,-9.8538 17.5149,-21.8736 z m 48.6012,-126.0624 c 0,-45.3384 -26.5788,-78.3573 -47.4342,-58.9275 -14.3307,13.3509 -6.066,33.8472 22.8711,56.7207 8.2716,6.5382 15.912,13.2996 16.9782,15.0252 4.5057,7.2903 7.5849,2.0868 7.5849,-12.8184 z m -432,86.928 c 0,-0.918 9.1125,-8.0793 20.25,-15.9138 11.1375,-7.8345 24.5964,-18.5931 29.9085,-23.9085 8.6355,-8.6406 39.1797,-33.1428 58.2324,-46.7136 3.9102,-2.7849 15.8841,-11.7864 26.6091,-20.0031 10.725,-8.2167 30.6924,-22.1379 44.3718,-30.9363 23.9664,-15.4146 113.451,-82.1229 130.3521,-97.1736 4.5234,-4.0281 9.8385,-7.3236 11.8113,-7.3236 4.5837,0 -10.3731,15.9732 -26.3406,28.1307 -6.768,5.1531 -22.8549,17.4693 -35.7486,27.3693 -12.8937,9.9 -37.2684,27.45 -54.1659,39 -52.0944,35.6085 -103.0854,73.7754 -159.6009,119.4624 -22.5645,18.2409 -45.6792,32.4147 -45.6792,28.0101 z"
         id="path50524"
         inkscape:connector-curvature="0" />
    </g>
  </g>
</svg>
