<svg width="18" height="18" viewBox="0 0 18 18" fill="none" xmlns="http://www.w3.org/2000/svg">
<path d="M8.99999 1.68503C7.2191 1.6851 5.49634 2.31886 4.13996 3.47291C2.78359 4.62696 1.88212 6.22599 1.59684 7.98389C1.31156 9.74179 1.6611 11.5438 2.58291 13.0676C3.50473 14.5914 4.93865 15.7374 6.62813 16.3006C7.00313 16.3663 7.14375 16.1413 7.14375 15.9444C7.14375 15.7663 7.13437 15.1756 7.13437 14.5475C5.24999 14.8944 4.76249 14.0882 4.61249 13.6663C4.44605 13.256 4.1822 12.8924 3.84374 12.6069C3.58124 12.4663 3.20624 12.1194 3.83436 12.11C4.0742 12.1361 4.30423 12.2195 4.50496 12.3533C4.7057 12.4872 4.87121 12.6674 4.98749 12.8788C5.09007 13.063 5.228 13.2253 5.39338 13.3561C5.55876 13.487 5.74835 13.584 5.95126 13.6415C6.15418 13.6989 6.36645 13.7158 6.5759 13.6911C6.78535 13.6664 6.98787 13.6006 7.17185 13.4975C7.20432 13.1162 7.37424 12.7597 7.64999 12.4944C5.98124 12.3069 4.23749 11.66 4.23749 8.7913C4.22695 8.04591 4.502 7.32473 5.00624 6.77568C4.77695 6.12784 4.80378 5.41689 5.08124 4.78818C5.08124 4.78818 5.70934 4.59129 7.14374 5.55693C8.37096 5.21941 9.66652 5.21941 10.8937 5.55693C12.3281 4.58193 12.9562 4.78818 12.9562 4.78818C13.2337 5.41688 13.2606 6.12785 13.0312 6.77568C13.537 7.32379 13.8123 8.0456 13.8 8.7913C13.8 11.6694 12.0469 12.3069 10.3781 12.4944C10.5571 12.6758 10.695 12.8936 10.7823 13.1331C10.8697 13.3725 10.9045 13.6279 10.8844 13.8819C10.8844 14.8851 10.875 15.6913 10.875 15.9444C10.875 16.1413 11.0156 16.3757 11.3906 16.3007C13.0771 15.7328 14.5069 14.5841 15.4248 13.0596C16.3427 11.535 16.6889 9.7339 16.4016 7.97771C16.1144 6.22151 15.2124 4.62456 13.8566 3.47191C12.5008 2.31927 10.7795 1.68595 8.99999 1.68503Z" fill="#2B6CB0"/>
</svg>
