<svg width="18" height="18" viewBox="0 0 18 18" fill="none" xmlns="http://www.w3.org/2000/svg">
<path d="M15.3525 1.5H2.6475C2.50468 1.49801 2.36287 1.52418 2.23017 1.57701C2.09747 1.62984 1.97648 1.70829 1.8741 1.80788C1.77172 1.90747 1.68996 2.02626 1.63349 2.15745C1.57702 2.28865 1.54695 2.42968 1.545 2.5725V15.4275C1.54695 15.5703 1.57702 15.7113 1.63349 15.8425C1.68996 15.9737 1.77172 16.0925 1.8741 16.1921C1.97648 16.2917 2.09747 16.3702 2.23017 16.423C2.36287 16.4758 2.50468 16.502 2.6475 16.5H15.3525C15.4953 16.502 15.6371 16.4758 15.7698 16.423C15.9025 16.3702 16.0235 16.2917 16.1259 16.1921C16.2283 16.0925 16.31 15.9737 16.3665 15.8425C16.423 15.7113 16.453 15.5703 16.455 15.4275V2.5725C16.453 2.42968 16.423 2.28865 16.3665 2.15745C16.31 2.02626 16.2283 1.90747 16.1259 1.80788C16.0235 1.70829 15.9025 1.62984 15.7698 1.57701C15.6371 1.52418 15.4953 1.49801 15.3525 1.5ZM6.0675 14.055H3.8175V7.305H6.0675V14.055ZM4.9425 6.36C4.6322 6.36 4.3346 6.23673 4.11518 6.01731C3.89577 5.79789 3.7725 5.5003 3.7725 5.19C3.7725 4.87969 3.89577 4.5821 4.11518 4.36268C4.3346 4.14326 4.6322 4.02 4.9425 4.02C5.10727 4.00131 5.27413 4.01764 5.43215 4.06791C5.59018 4.11818 5.7358 4.20126 5.85949 4.31172C5.98318 4.42217 6.08214 4.5575 6.1499 4.70886C6.21766 4.86021 6.25269 5.02417 6.25269 5.19C6.25269 5.35582 6.21766 5.51978 6.1499 5.67113C6.08214 5.82249 5.98318 5.95782 5.85949 6.06827C5.7358 6.17873 5.59018 6.26181 5.43215 6.31208C5.27413 6.36236 5.10727 6.37868 4.9425 6.36ZM14.1825 14.055H11.9325V10.4325C11.9325 9.525 11.61 8.9325 10.7925 8.9325C10.5395 8.93435 10.2931 9.01371 10.0866 9.15987C9.88011 9.30604 9.72336 9.512 9.6375 9.75C9.57881 9.92628 9.55338 10.1119 9.5625 10.2975V14.0475H7.3125C7.3125 14.0475 7.3125 7.9125 7.3125 7.2975H9.5625V8.25C9.7669 7.89533 10.0642 7.60314 10.4223 7.4049C10.7805 7.20666 11.1859 7.10988 11.595 7.125C13.095 7.125 14.1825 8.0925 14.1825 10.17V14.055Z" fill="#2B6CB0"/>
</svg>
